<?xml version="1.0" encoding="UTF-8" standalone="no"?>
<!-- Created with Inkscape (http://www.inkscape.org/) -->

<svg
   version="1.1"
   id="svg2"
   width="666.66669"
   height="666.66669"
   viewBox="0 0 666.66669 666.66669"
   sodipodi:docname="hero1.eps"
   xmlns:inkscape="http://www.inkscape.org/namespaces/inkscape"
   xmlns:sodipodi="http://sodipodi.sourceforge.net/DTD/sodipodi-0.dtd"
   xmlns="http://www.w3.org/2000/svg"
   xmlns:svg="http://www.w3.org/2000/svg">
  <defs
     id="defs6" />
  <sodipodi:namedview
     id="namedview4"
     pagecolor="#ffffff"
     bordercolor="#000000"
     borderopacity="0.25"
     inkscape:showpageshadow="2"
     inkscape:pageopacity="0.0"
     inkscape:pagecheckerboard="0"
     inkscape:deskcolor="#d1d1d1" />
  <g
     id="g8"
     inkscape:groupmode="layer"
     inkscape:label="ink_ext_XXXXXX"
     transform="matrix(1.3333333,0,0,-1.3333333,0,666.66667)">
    <g
       id="g10"
       transform="scale(0.1)">
      <path
         d="M 5000,0 H 0 V 5000 H 5000 V 0"
         style="fill:#cac4e7;fill-opacity:1;fill-rule:nonzero;stroke:none"
         id="path12" />
      <path
         d="m 4415.98,2562.79 c 17.8,371.32 -141.31,742.52 -405.49,1004.06 -264.18,261.53 -626.64,415.16 -996.85,448.9 -370.21,33.73 -746.68,-48.51 -1081.46,-210.13 -268.39,-129.57 -514.88,-312.55 -691.93,-552.29 -177.06,-239.73 -280.922,-538.84 -259.777,-836.12 35.067,-492.98 364.537,-933.56 805.427,-1156.9 440.89,-223.34 963.53,-244.19 1447.6,-144.49 194.68,40.09 387.52,99.63 558.33,201.28 406.29,241.8 601.52,773.44 624.15,1245.69"
         style="fill:#dedaf0;fill-opacity:1;fill-rule:nonzero;stroke:none"
         id="path14" />
      <path
         d="m 1278.92,4485.6 56.25,97.43 h -112.5 z"
         style="fill:#13110f;fill-opacity:1;fill-rule:nonzero;stroke:none"
         id="path16" />
      <path
         d="m 3334.74,4418.05 -56.25,-97.42 h 112.5 z"
         style="fill:#6851ad;fill-opacity:1;fill-rule:nonzero;stroke:none"
         id="path18" />
      <path
         d="m 4452.06,3443.98 97.43,-56.25 v 112.5 z"
         style="fill:none;stroke:#13110f;stroke-width:10;stroke-linecap:round;stroke-linejoin:round;stroke-miterlimit:10;stroke-dasharray:none;stroke-opacity:1"
         id="path20" />
      <path
         d="m 611.523,2659.24 97.434,-56.26 v 112.51 z"
         style="fill:#6851ad;fill-opacity:1;fill-rule:nonzero;stroke:none"
         id="path22" />
      <path
         d="m 1857.04,1027.36 -97.43,56.25 V 971.102 Z"
         style="fill:#13110f;fill-opacity:1;fill-rule:nonzero;stroke:none"
         id="path24" />
      <path
         d="m 1203.78,4222.07 c 0,8.63 -6.99,15.62 -15.62,15.62 -8.63,0 -15.62,-6.99 -15.62,-15.62 0,-8.63 6.99,-15.62 15.62,-15.62 8.63,0 15.62,6.99 15.62,15.62"
         style="fill:#6851ad;fill-opacity:1;fill-rule:nonzero;stroke:none"
         id="path26" />
      <path
         d="m 1914.74,3975.2 c 0,8.62 -6.99,15.61 -15.62,15.61 -8.62,0 -15.62,-6.99 -15.62,-15.61 0,-8.63 7,-15.62 15.62,-15.62 8.63,0 15.62,6.99 15.62,15.62"
         style="fill:#13110f;fill-opacity:1;fill-rule:nonzero;stroke:none"
         id="path28" />
      <path
         d="m 810.457,2322.4 c 0,8.62 -6.992,15.62 -15.621,15.62 -8.625,0 -15.617,-7 -15.617,-15.62 0,-8.63 6.992,-15.62 15.617,-15.62 8.629,0 15.621,6.99 15.621,15.62 z"
         style="fill:none;stroke:#13110f;stroke-width:10;stroke-linecap:round;stroke-linejoin:round;stroke-miterlimit:10;stroke-dasharray:none;stroke-opacity:1"
         id="path30" />
      <path
         d="m 2228.17,3769.21 c 0,8.62 -6.99,15.62 -15.62,15.62 -8.62,0 -15.62,-7 -15.62,-15.62 0,-8.63 7,-15.62 15.62,-15.62 8.63,0 15.62,6.99 15.62,15.62 z"
         style="fill:none;stroke:#13110f;stroke-width:10;stroke-linecap:round;stroke-linejoin:round;stroke-miterlimit:10;stroke-dasharray:none;stroke-opacity:1"
         id="path32" />
      <path
         d="m 2913.57,4308.56 c 0,8.63 -7,15.62 -15.62,15.62 -8.63,0 -15.62,-6.99 -15.62,-15.62 0,-8.63 6.99,-15.62 15.62,-15.62 8.62,0 15.62,6.99 15.62,15.62"
         style="fill:#13110f;fill-opacity:1;fill-rule:nonzero;stroke:none"
         id="path34" />
      <path
         d="m 3458.31,3220.31 c 0,8.63 -6.99,15.62 -15.61,15.62 -8.63,0 -15.62,-6.99 -15.62,-15.62 0,-8.62 6.99,-15.62 15.62,-15.62 8.62,0 15.61,7 15.61,15.62"
         style="fill:#6851ad;fill-opacity:1;fill-rule:nonzero;stroke:none"
         id="path36" />
      <path
         d="m 3919.48,3422.1 c 0,8.62 -6.99,15.62 -15.62,15.62 -8.63,0 -15.62,-7 -15.62,-15.62 0,-8.63 6.99,-15.62 15.62,-15.62 8.63,0 15.62,6.99 15.62,15.62 z"
         style="fill:none;stroke:#13110f;stroke-width:10;stroke-linecap:round;stroke-linejoin:round;stroke-miterlimit:10;stroke-dasharray:none;stroke-opacity:1"
         id="path38" />
      <path
         d="m 2212.55,2210.08 c 0,8.62 -6.99,15.62 -15.62,15.62 -8.62,0 -15.62,-7 -15.62,-15.62 0,-8.63 7,-15.62 15.62,-15.62 8.63,0 15.62,6.99 15.62,15.62"
         style="fill:#6851ad;fill-opacity:1;fill-rule:nonzero;stroke:none"
         id="path40" />
      <path
         d="m 1251.01,2288.16 c 0,8.62 -6.99,15.62 -15.61,15.62 -8.63,0 -15.62,-7 -15.62,-15.62 0,-8.63 6.99,-15.62 15.62,-15.62 8.62,0 15.61,6.99 15.61,15.62"
         style="fill:#6851ad;fill-opacity:1;fill-rule:nonzero;stroke:none"
         id="path42" />
      <path
         d="m 3541.68,3053.32 c 0,8.63 -6.99,15.62 -15.61,15.62 -8.63,0 -15.62,-6.99 -15.62,-15.62 0,-8.63 6.99,-15.62 15.62,-15.62 8.62,0 15.61,6.99 15.61,15.62"
         style="fill:#13110f;fill-opacity:1;fill-rule:nonzero;stroke:none"
         id="path44" />
      <path
         d="m 2420.06,1925.92 c 0,8.63 -6.99,15.62 -15.62,15.62 -8.63,0 -15.62,-6.99 -15.62,-15.62 0,-8.63 6.99,-15.62 15.62,-15.62 8.63,0 15.62,6.99 15.62,15.62"
         style="fill:#6851ad;fill-opacity:1;fill-rule:nonzero;stroke:none"
         id="path46" />
      <path
         d="m 2212.55,954.051 c 0,8.629 -6.99,15.621 -15.62,15.621 -8.62,0 -15.62,-6.992 -15.62,-15.621 0,-8.621 7,-15.621 15.62,-15.621 8.63,0 15.62,7 15.62,15.621"
         style="fill:#6851ad;fill-opacity:1;fill-rule:nonzero;stroke:none"
         id="path48" />
      <path
         d="m 1970.63,1721.72 c 0,8.63 -6.99,15.62 -15.62,15.62 -8.62,0 -15.62,-6.99 -15.62,-15.62 0,-8.63 7,-15.62 15.62,-15.62 8.63,0 15.62,6.99 15.62,15.62"
         style="fill:#6851ad;fill-opacity:1;fill-rule:nonzero;stroke:none"
         id="path50" />
      <path
         d="m 1803.59,1706.1 c 0,8.63 -7,15.62 -15.62,15.62 -8.63,0 -15.62,-6.99 -15.62,-15.62 0,-8.63 6.99,-15.62 15.62,-15.62 8.62,0 15.62,6.99 15.62,15.62 z"
         style="fill:none;stroke:#13110f;stroke-width:10;stroke-linecap:round;stroke-linejoin:round;stroke-miterlimit:10;stroke-dasharray:none;stroke-opacity:1"
         id="path52" />
      <path
         d="m 4169.05,3739.94 v 0 c -9.7,-30.13 -52.33,-30.13 -62.03,0 v 0 c -9.7,30.13 -52.33,30.13 -62.03,0 v 0 c -9.69,-30.13 -52.33,-30.13 -62.03,0 v 0 c -9.69,30.13 -52.33,30.13 -62.02,0 v 0 c -9.7,-30.13 -52.34,-30.13 -62.03,0 v 0 c -9.7,30.13 -52.33,30.13 -62.03,0 v 0 c -9.7,-30.13 -52.33,-30.13 -62.03,0 v 0 c -9.7,30.13 -52.33,30.13 -62.03,0 v 0 c -9.7,-30.13 -52.33,-30.13 -62.03,0 v 0 c -9.7,30.13 -52.33,30.13 -62.03,0"
         style="fill:none;stroke:#13110f;stroke-width:10;stroke-linecap:round;stroke-linejoin:round;stroke-miterlimit:10;stroke-dasharray:none;stroke-opacity:1"
         id="path54" />
      <path
         d="m 1440.31,1985.15 v 0 c -9.7,-30.13 -52.33,-30.13 -62.03,0 v 0 c -9.69,30.14 -52.33,30.14 -62.03,0 v 0 c -9.69,-30.13 -52.33,-30.13 -62.02,0 v 0 c -9.7,30.14 -52.34,30.14 -62.03,0 v 0 c -9.7,-30.13 -52.33,-30.13 -62.03,0 v 0 c -9.7,30.14 -52.33,30.14 -62.03,0 v 0 c -9.7,-30.13 -52.33,-30.13 -62.03,0 v 0 c -9.696,30.14 -52.333,30.14 -62.028,0 v 0 c -9.699,-30.13 -52.332,-30.13 -62.027,0 v 0 c -9.7,30.14 -52.332,30.14 -62.032,0"
         style="fill:none;stroke:#13110f;stroke-width:10;stroke-linecap:round;stroke-linejoin:round;stroke-miterlimit:10;stroke-dasharray:none;stroke-opacity:1"
         id="path56" />
      <path
         d="m 2550.42,1477.25 v 0 c -9.7,-30.13 -52.33,-30.13 -62.03,0 v 0 c -9.7,30.13 -52.33,30.13 -62.03,0 v 0 c -9.7,-30.13 -52.33,-30.13 -62.03,0 v 0 c -9.7,30.13 -52.33,30.13 -62.03,0 v 0 c -9.7,-30.13 -52.33,-30.13 -62.03,0 v 0 c -9.7,30.13 -52.33,30.13 -62.03,0 v 0 c -9.69,-30.13 -52.33,-30.13 -62.03,0 v 0 c -9.69,30.13 -52.33,30.13 -62.02,0 v 0 c -9.7,-30.13 -52.34,-30.13 -62.03,0 v 0 c -9.7,30.13 -52.33,30.13 -62.03,0"
         style="fill:none;stroke:#13110f;stroke-width:10;stroke-linecap:round;stroke-linejoin:round;stroke-miterlimit:10;stroke-dasharray:none;stroke-opacity:1"
         id="path58" />
      <path
         d="m 1987.45,4496.3 c -36.11,0 -65.39,29.27 -65.39,65.39 0,36.11 29.28,65.39 65.39,65.39 36.12,0 65.4,-29.28 65.4,-65.39 0,-36.12 -29.28,-65.39 -65.4,-65.39 z m 157.36,65.39 c 0,24.46 18.44,44.4 42.13,47.24 -5.12,21.68 -13.66,41.97 -25.05,60.39 -18.76,-14.73 -45.88,-13.65 -63.17,3.64 -17.29,17.28 -18.36,44.4 -3.64,63.17 -18.41,11.38 -38.7,19.93 -60.38,25.05 -2.84,-23.7 -22.78,-42.14 -47.25,-42.14 -24.46,0 -44.4,18.44 -47.24,42.14 -21.68,-5.12 -41.97,-13.67 -60.38,-25.05 14.72,-18.77 13.65,-45.89 -3.64,-63.17 -17.29,-17.29 -44.41,-18.37 -63.17,-3.64 -11.39,-18.42 -19.94,-38.71 -25.05,-60.39 23.69,-2.84 42.13,-22.78 42.13,-47.24 0,-24.46 -18.44,-44.4 -42.13,-47.25 5.11,-21.67 13.66,-41.97 25.05,-60.38 18.76,14.73 45.88,13.65 63.17,-3.64 17.29,-17.29 18.36,-44.4 3.64,-63.17 18.41,-11.38 38.7,-19.93 60.38,-25.05 2.84,23.7 22.78,42.14 47.24,42.14 24.47,0 44.41,-18.44 47.25,-42.14 21.68,5.12 41.97,13.67 60.38,25.05 -14.72,18.77 -13.65,45.88 3.64,63.17 17.29,17.29 44.41,18.37 63.17,3.64 11.39,18.41 19.93,38.71 25.05,60.38 -23.69,2.85 -42.13,22.79 -42.13,47.25"
         style="fill:#6851ad;fill-opacity:1;fill-rule:nonzero;stroke:none"
         id="path60" />
      <path
         d="m 2618.25,4130.16 c 0,-53.94 -17.8,-103.82 -47.79,-144.01 -32.7,-43.63 -79.66,-75.81 -134.12,-89.45 -18.85,-4.79 -38.53,-7.29 -58.83,-7.29 -132.98,0 -240.75,107.78 -240.75,240.75 0,132.97 107.77,240.74 240.75,240.74 94.02,0 175.35,-53.83 215.02,-132.45 16.45,-32.59 25.72,-69.35 25.72,-108.29"
         style="fill:#ffffff;fill-opacity:1;fill-rule:nonzero;stroke:none"
         id="path62" />
      <path
         d="m 2377.47,4370.95 v -240.82 h -240.73 c 0,133 107.82,240.82 240.73,240.82"
         style="fill:#f57fa7;fill-opacity:1;fill-rule:nonzero;stroke:none"
         id="path64" />
      <path
         d="m 2592.53,4238.45 -215.02,-108.29 v 240.74 c 94.02,0 175.35,-53.83 215.02,-132.45"
         style="fill:#998ccd;fill-opacity:1;fill-rule:nonzero;stroke:none"
         id="path66" />
      <path
         d="m 2570.46,3986.15 c -32.7,-43.63 -79.66,-75.81 -134.12,-89.45 l -58.83,233.46 192.95,-144.01"
         style="fill:#f58614;fill-opacity:1;fill-rule:nonzero;stroke:none"
         id="path68" />
      <path
         d="m 2727.33,4435.23 h -62.11 v 198.16 h 62.11 v -198.16"
         style="fill:#6851ad;fill-opacity:1;fill-rule:nonzero;stroke:none"
         id="path70" />
      <path
         d="m 2833.28,4435.23 h -62.11 v 252.91 h 62.11 v -252.91"
         style="fill:#998ccd;fill-opacity:1;fill-rule:nonzero;stroke:none"
         id="path72" />
      <path
         d="m 2939.24,4435.23 h -62.11 v 148.23 h 62.11 v -148.23"
         style="fill:#6851ad;fill-opacity:1;fill-rule:nonzero;stroke:none"
         id="path74" />
      <path
         d="m 2996.47,4732.94 h -388.48 v -297.71 h 388.48 z"
         style="fill:none;stroke:#13110f;stroke-width:10;stroke-linecap:round;stroke-linejoin:round;stroke-miterlimit:10;stroke-dasharray:none;stroke-opacity:1"
         id="path76" />
      <path
         d="m 1689.65,4389.29 h -167.22 v -167.22 h 167.22 v 167.22"
         style="fill:#ffffff;fill-opacity:1;fill-rule:nonzero;stroke:none"
         id="path78" />
      <path
         d="m 1613.38,4246.27 -77.41,91.52 26.91,22.76 46.69,-55.22 70.15,108.63 29.61,-19.1 -95.95,-148.59"
         style="fill:#f58614;fill-opacity:1;fill-rule:nonzero;stroke:none"
         id="path80" />
      <path
         d="m 1689.65,4142.89 h -167.22 v -167.23 h 167.22 v 167.23"
         style="fill:#ffffff;fill-opacity:1;fill-rule:nonzero;stroke:none"
         id="path82" />
      <path
         d="m 1613.38,3999.86 -77.41,91.52 26.91,22.76 46.69,-55.22 70.15,108.63 29.61,-19.1 -95.95,-148.59"
         style="fill:#f58614;fill-opacity:1;fill-rule:nonzero;stroke:none"
         id="path84" />
      <path
         d="m 1689.65,3896.48 h -167.22 v -167.23 h 167.22 v 167.23"
         style="fill:#ffffff;fill-opacity:1;fill-rule:nonzero;stroke:none"
         id="path86" />
      <path
         d="m 1613.38,3753.45 -77.41,91.52 26.91,22.76 46.69,-55.22 70.15,108.64 29.61,-19.11 -95.95,-148.59"
         style="fill:#f58614;fill-opacity:1;fill-rule:nonzero;stroke:none"
         id="path88" />
      <path
         d="m 675.141,3101.57 -188.621,188.63 36.808,36.81 188.625,-188.63 -36.812,-36.81"
         style="fill:#c23c49;fill-opacity:1;fill-rule:nonzero;stroke:none"
         id="path90" />
      <path
         d="m 629.77,3308.61 c 0,68.95 -55.895,124.84 -124.844,124.84 -68.953,0 -124.848,-55.89 -124.848,-124.84 0,-68.96 55.895,-124.85 124.848,-124.85 68.949,0 124.844,55.89 124.844,124.85"
         style="fill:#ffffff;fill-opacity:1;fill-rule:nonzero;stroke:none"
         id="path92" />
      <path
         d="m 504.926,3417.83 c -60.231,0 -109.231,-49 -109.231,-109.23 0,-60.23 49,-109.22 109.231,-109.22 60.222,0 109.222,48.99 109.222,109.22 0,60.23 -49,109.23 -109.222,109.23 z m 0,-249.69 c -77.457,0 -140.469,63 -140.469,140.46 0,77.46 63.012,140.47 140.469,140.47 77.449,0 140.461,-63.01 140.461,-140.47 0,-77.46 -63.012,-140.46 -140.461,-140.46"
         style="fill:#f57fa7;fill-opacity:1;fill-rule:nonzero;stroke:none"
         id="path94" />
      <path
         d="m 602.578,3200.52 c 23.516,-23.85 47.031,-47.71 70.547,-71.56"
         style="fill:none;stroke:#13110f;stroke-width:10;stroke-linecap:round;stroke-linejoin:round;stroke-miterlimit:10;stroke-dasharray:none;stroke-opacity:1"
         id="path96" />
      <path
         d="m 3283.72,4047.11 v -560.19 h -556.39 v 715.83 h 400.76 l 155.63,-155.64"
         style="fill:#ffffff;fill-opacity:1;fill-rule:nonzero;stroke:none"
         id="path98" />
      <path
         d="m 3283.72,4047.11 h -155.63 v 155.64 z"
         style="fill:#998ccd;fill-opacity:1;fill-rule:nonzero;stroke:none"
         id="path100" />
      <path
         d="m 2842.09,4000.99 h 345.9"
         style="fill:none;stroke:#13110f;stroke-width:10;stroke-linecap:round;stroke-linejoin:round;stroke-miterlimit:10;stroke-dasharray:none;stroke-opacity:1"
         id="path102" />
      <path
         d="m 2842.09,3930.68 h 345.9"
         style="fill:none;stroke:#13110f;stroke-width:10;stroke-linecap:round;stroke-linejoin:round;stroke-miterlimit:10;stroke-dasharray:none;stroke-opacity:1"
         id="path104" />
      <path
         d="m 2842.09,3860.36 h 345.9"
         style="fill:none;stroke:#13110f;stroke-width:10;stroke-linecap:round;stroke-linejoin:round;stroke-miterlimit:10;stroke-dasharray:none;stroke-opacity:1"
         id="path106" />
      <path
         d="m 2842.09,3790.04 h 345.9"
         style="fill:none;stroke:#13110f;stroke-width:10;stroke-linecap:round;stroke-linejoin:round;stroke-miterlimit:10;stroke-dasharray:none;stroke-opacity:1"
         id="path108" />
      <path
         d="m 2842.09,3719.72 h 345.9"
         style="fill:none;stroke:#13110f;stroke-width:10;stroke-linecap:round;stroke-linejoin:round;stroke-miterlimit:10;stroke-dasharray:none;stroke-opacity:1"
         id="path110" />
      <path
         d="m 2842.09,3649.4 h 345.9"
         style="fill:none;stroke:#13110f;stroke-width:10;stroke-linecap:round;stroke-linejoin:round;stroke-miterlimit:10;stroke-dasharray:none;stroke-opacity:1"
         id="path112" />
      <path
         d="m 351.176,4003.76 h 337.707 v -180.92 h -222.59 l -32.742,-56.71 -32.738,56.71 h -49.637 v 180.92"
         style="fill:#ffffff;fill-opacity:1;fill-rule:nonzero;stroke:none"
         id="path114" />
      <path
         d="m 414.039,3938.98 h 222.09"
         style="fill:none;stroke:#13110f;stroke-width:10;stroke-linecap:round;stroke-linejoin:round;stroke-miterlimit:10;stroke-dasharray:none;stroke-opacity:1"
         id="path116" />
      <path
         d="m 414.039,3884.21 h 222.09"
         style="fill:none;stroke:#13110f;stroke-width:10;stroke-linecap:round;stroke-linejoin:round;stroke-miterlimit:10;stroke-dasharray:none;stroke-opacity:1"
         id="path118" />
      <path
         d="M 963.691,4274.91 H 625.984 v -180.92 h 222.59 l 32.742,-56.7 32.739,56.7 h 49.636 v 180.92"
         style="fill:#ffffff;fill-opacity:1;fill-rule:nonzero;stroke:none"
         id="path120" />
      <path
         d="M 683.789,4210.86 H 905.883"
         style="fill:none;stroke:#13110f;stroke-width:10;stroke-linecap:round;stroke-linejoin:round;stroke-miterlimit:10;stroke-dasharray:none;stroke-opacity:1"
         id="path122" />
      <path
         d="M 683.789,4156.1 H 905.883"
         style="fill:none;stroke:#13110f;stroke-width:10;stroke-linecap:round;stroke-linejoin:round;stroke-miterlimit:10;stroke-dasharray:none;stroke-opacity:1"
         id="path124" />
      <path
         d="m 1120.48,3825.2 v -364.98 h -362.5 v 466.38 h 261.1 l 101.4,-101.4"
         style="fill:#6851ad;fill-opacity:1;fill-rule:nonzero;stroke:none"
         id="path126" />
      <path
         d="m 1120.48,3825.2 h -101.4 v 101.4 z"
         style="fill:#998ccd;fill-opacity:1;fill-rule:nonzero;stroke:none"
         id="path128" />
      <path
         d="m 996.086,3757.66 c -23.781,-13.73 -31.93,-44.14 -18.199,-67.92 13.73,-23.78 44.143,-31.93 67.923,-18.2 23.78,13.73 31.93,44.14 18.2,67.92 -13.73,23.78 -44.14,31.93 -67.924,18.2"
         style="fill:#ffffff;fill-opacity:1;fill-rule:nonzero;stroke:none"
         id="path130" />
      <path
         d="m 830.688,3662.17 c -23.782,-13.73 -31.93,-44.14 -18.2,-67.92 13.731,-23.78 44.137,-31.93 67.918,-18.2 23.782,13.73 31.93,44.14 18.199,67.92 -13.73,23.78 -44.136,31.93 -67.917,18.2"
         style="fill:#ffffff;fill-opacity:1;fill-rule:nonzero;stroke:none"
         id="path132" />
      <path
         d="m 1045.81,3662.17 c -23.78,13.73 -54.193,5.58 -67.923,-18.2 -13.731,-23.78 -5.582,-54.19 18.199,-67.92 23.784,-13.73 54.194,-5.58 67.924,18.2 13.73,23.78 5.58,54.19 -18.2,67.92"
         style="fill:#ffffff;fill-opacity:1;fill-rule:nonzero;stroke:none"
         id="path134" />
      <path
         d="m 880.406,3757.66 c -23.781,13.73 -54.187,5.58 -67.918,-18.2 -13.73,-23.78 -5.582,-54.19 18.2,-67.92 23.781,-13.73 54.187,-5.58 67.917,18.2 13.731,23.78 5.583,54.19 -18.199,67.92"
         style="fill:#ffffff;fill-opacity:1;fill-rule:nonzero;stroke:none"
         id="path136" />
      <path
         d="m 987.969,3571.36 c 0,27.46 -22.262,49.72 -49.723,49.72 -27.461,0 -49.719,-22.26 -49.719,-49.72 0,-27.46 22.258,-49.72 49.719,-49.72 27.461,0 49.723,22.26 49.723,49.72"
         style="fill:#ffffff;fill-opacity:1;fill-rule:nonzero;stroke:none"
         id="path138" />
      <path
         d="m 987.969,3762.35 c 0,27.46 -22.262,49.72 -49.723,49.72 -27.461,0 -49.719,-22.26 -49.719,-49.72 0,-27.46 22.258,-49.72 49.719,-49.72 27.461,0 49.723,22.26 49.723,49.72"
         style="fill:#ffffff;fill-opacity:1;fill-rule:nonzero;stroke:none"
         id="path140" />
      <path
         d="m 1009.28,3666.85 c 0,39.23 -31.803,71.03 -71.034,71.03 -39.226,0 -71.027,-31.8 -71.027,-71.03 0,-39.22 31.801,-71.02 71.027,-71.02 39.231,0 71.034,31.8 71.034,71.02"
         style="fill:#f58614;fill-opacity:1;fill-rule:nonzero;stroke:none"
         id="path142" />
      <path
         d="m 4169.21,335.969 c 0,72.769 -473.38,72.769 -1057.33,72.769 -583.94,0 -1057.32,0 -1057.32,-72.769 0,-72.77 473.38,-72.77 1057.32,-72.77 583.95,0 1057.33,0 1057.33,72.77"
         style="fill:#cac4e7;fill-opacity:1;fill-rule:nonzero;stroke:none"
         id="path144" />
      <path
         d="m 2653.41,729.371 c -7.81,-119.922 -73.38,-234.762 -172.69,-302.441 -36.29,-24.731 -83.56,-47.11 -85.99,-90.961 l 1213.96,6.371 c 31.8,135.058 70.72,277.879 102.53,412.93 -355.26,-2.551 -702.55,-23.348 -1057.81,-25.899"
         style="fill:#13110f;fill-opacity:1;fill-rule:nonzero;stroke:none"
         id="path146" />
      <path
         d="m 3172.5,705.871 c -8.12,-111.281 -62.92,-218.422 -148.4,-290.141 -27.07,-22.71 -63.75,-39.769 -78.51,-71.871"
         style="fill:none;stroke:#ffffff;stroke-width:10;stroke-linecap:round;stroke-linejoin:round;stroke-miterlimit:10;stroke-dasharray:none;stroke-opacity:1"
         id="path148" />
      <path
         d="m 2968.93,360.121 c 218.1,8.867 436.19,17.738 654.29,26.609"
         style="fill:none;stroke:#ffffff;stroke-width:10;stroke-linecap:round;stroke-linejoin:round;stroke-miterlimit:10;stroke-dasharray:none;stroke-opacity:1"
         id="path150" />
      <path
         d="m 2407.84,361.742 c 182.95,1.817 365.91,3.637 548.86,5.449"
         style="fill:none;stroke:#ffffff;stroke-width:10;stroke-linecap:round;stroke-linejoin:round;stroke-miterlimit:10;stroke-dasharray:none;stroke-opacity:1"
         id="path152" />
      <path
         d="m 4403.26,1882.68 c -344.56,88.43 -716.81,92.92 -1056.24,-13.53 0.89,-28.19 -10.86,-53.34 -9.97,-81.53 -83.3,-7.4 -167.59,-3.17 -250.89,-10.58 -83.98,3.08 -159.22,-59.76 -206.01,-129.56 -46.79,-69.8 -68.48,-152.95 -89.4,-234.34 -60.17,-234.1 -120.34,-468.199 -180.51,-702.3 l 1115.89,-11.11 c 40.21,185.032 96.47,371.13 136.68,556.16 82.8,10.71 166.21,21.56 245.43,47.92 79.22,26.36 154.92,69.56 206.88,134.91 96.04,120.8 94.36,289.76 88.14,443.96"
         style="fill:#6851ad;fill-opacity:1;fill-rule:nonzero;stroke:none"
         id="path154" />
      <path
         d="m 3895.41,1386.37 c -10.67,-46.1 -21.33,-92.2 -31.99,-138.3 12.76,16.29 25.52,32.57 38.27,48.85"
         style="fill:none;stroke:#13110f;stroke-width:10;stroke-linecap:round;stroke-linejoin:round;stroke-miterlimit:10;stroke-dasharray:none;stroke-opacity:1"
         id="path156" />
      <path
         d="m 3157.31,712.738 c 63.77,280.043 127.54,560.082 191.32,840.122 23.07,101.31 100.67,188.21 202.78,207.46"
         style="fill:none;stroke:#13110f;stroke-width:10;stroke-linecap:round;stroke-linejoin:round;stroke-miterlimit:10;stroke-dasharray:none;stroke-opacity:1"
         id="path158" />
      <path
         d="m 3488.39,1668.7 c 43.95,33.49 107.91,38.15 156.24,11.39"
         style="fill:none;stroke:#13110f;stroke-width:10;stroke-linecap:round;stroke-linejoin:round;stroke-miterlimit:10;stroke-dasharray:none;stroke-opacity:1"
         id="path160" />
      <path
         d="m 2978.91,1693.1 c 21.13,23.4 51.99,37.72 83.5,38.74 31.51,1.02 63.24,-11.27 85.84,-33.25"
         style="fill:none;stroke:#13110f;stroke-width:10;stroke-linecap:round;stroke-linejoin:round;stroke-miterlimit:10;stroke-dasharray:none;stroke-opacity:1"
         id="path162" />
      <path
         d="m 2635.63,790.43 c 0,0 976.78,-6.078 1092.61,-7.578"
         style="fill:none;stroke:#13110f;stroke-width:10;stroke-linecap:round;stroke-linejoin:round;stroke-miterlimit:10;stroke-dasharray:none;stroke-opacity:1"
         id="path164" />
      <path
         d="m 4229.44,2815.67 c -88.03,23.3 -166.14,36.1 -255.45,53.81 -6.84,-26.66 -32.37,-47.36 -59.87,-48.54 -27.49,-1.17 -53.01,16.37 -62.09,42.35 -68.56,-20.33 -137.13,-40.67 -205.69,-61.01 -104.7,-31.06 -196.68,-102.54 -271.29,-182.28 -60.67,-64.84 -124.01,-125.31 -185.25,-189.6 76.44,-220.18 142.51,-361.47 242.63,-571.94 l 961.37,90.57 c 52.25,179.95 110.12,278.36 162.38,458.3 24.49,20.85 55.84,41.8 80.32,62.64 -72.75,166.43 -178.94,285.31 -407.06,345.7"
         style="fill:#ffffff;fill-opacity:1;fill-rule:nonzero;stroke:none"
         id="path166" />
      <path
         d="m 3765.91,2836.81 c 8.77,-44.67 46.41,-80.63 89.99,-93.8 43.58,-13.17 91.68,-5.61 132.73,14.08 41.05,19.69 75.73,50.71 105.94,84.76"
         style="fill:none;stroke:#13110f;stroke-width:10;stroke-linecap:round;stroke-linejoin:round;stroke-miterlimit:10;stroke-dasharray:none;stroke-opacity:1"
         id="path168" />
      <path
         d="m 3505.75,2730.65 c -15.16,-95.54 -30.33,-191.09 -45.49,-286.63"
         style="fill:none;stroke:#13110f;stroke-width:10;stroke-linecap:round;stroke-linejoin:round;stroke-miterlimit:10;stroke-dasharray:none;stroke-opacity:1"
         id="path170" />
      <path
         d="m 4327.41,2780.53 c -38.85,-1.73 -76.45,-22.23 -98.95,-53.96 -22.5,-31.72 -25.3,-72.98 -18.22,-111.22 19.2,-103.75 36.75,-183.75 64.58,-274.03"
         style="fill:none;stroke:#13110f;stroke-width:10;stroke-linecap:round;stroke-linejoin:round;stroke-miterlimit:10;stroke-dasharray:none;stroke-opacity:1"
         id="path172" />
      <path
         d="m 4265.31,2383.3 c 120,38.54 240,77.08 360.01,115.63"
         style="fill:none;stroke:#13110f;stroke-width:10;stroke-linecap:round;stroke-linejoin:round;stroke-miterlimit:10;stroke-dasharray:none;stroke-opacity:1"
         id="path174" />
      <path
         d="m 4690.04,2252.29 c -14.55,73.03 -43.89,142.16 -73.05,210.69 l -319.6,-118.19 c 10.2,-43.53 20.41,-87.07 30.61,-130.61 -83.68,-24.11 -170.86,-42.87 -254.54,-66.99 -93.83,-27.04 -186.52,-57.1 -273.19,-102.11 -30.47,-63.8 -60.14,-125.78 -90.61,-189.58 -4.96,-10.39 -2.56,-27.17 6.08,-34.78 8.63,-7.62 21.22,-10.48 32.3,-7.35 59.02,16.68 109.89,63.19 162.77,94.27 -38.63,-40.97 -75.68,-83.43 -111.03,-127.26 13.92,-12.74 35.24,-12.12 50.7,-1.29 47.47,33.28 97.4,59.26 145.64,91.41 -17.71,-26.65 -35.43,-53.3 -53.14,-79.95 1.16,-6.87 7.74,-10.15 14.68,-9.68 6.95,0.47 13.18,4.26 19.08,7.95 24.14,15.05 48.27,30.11 72.41,45.16 45.94,-6.37 98.93,3.57 143.81,15.27 109.51,28.55 229.6,3.61 334.12,47.01 65.23,27.09 117.09,72.34 145.94,136.82 30.41,67.98 31.57,146.17 17.02,219.21"
         style="fill:#c23c49;fill-opacity:1;fill-rule:nonzero;stroke:none"
         id="path176" />
      <path
         d="m 4320.14,2213.94 c 24.55,4.19 49.1,8.39 73.66,12.58"
         style="fill:none;stroke:#13110f;stroke-width:10;stroke-linecap:round;stroke-linejoin:round;stroke-miterlimit:10;stroke-dasharray:none;stroke-opacity:1"
         id="path178" />
      <path
         d="m 3721.01,1833 c 46.23,52.15 92.45,104.3 138.68,156.45"
         style="fill:none;stroke:#13110f;stroke-width:10;stroke-linecap:round;stroke-linejoin:round;stroke-miterlimit:10;stroke-dasharray:none;stroke-opacity:1"
         id="path180" />
      <path
         d="m 3928.16,1923.56 c -11.1,-11.78 -22.19,-23.56 -33.28,-35.34"
         style="fill:none;stroke:#13110f;stroke-width:10;stroke-linecap:round;stroke-linejoin:round;stroke-miterlimit:10;stroke-dasharray:none;stroke-opacity:1"
         id="path182" />
      <path
         d="m 3540.86,2414.65 197.94,-591.54 h 382.9 c 19.41,0 31.76,-21.93 20.78,-38.01 -12.36,-18.1 -32.78,-28.89 -54.58,-28.89 H 2743.24 c -27.48,0 -51.89,17.64 -60.65,43.81 l -205.66,614.61 c -7.21,21.54 8.73,43.83 31.34,43.83 h 971.94 c 27.48,0 51.89,-17.64 60.65,-43.81"
         style="fill:#13110f;fill-opacity:1;fill-rule:nonzero;stroke:none"
         id="path184" />
      <path
         d="m 3027.2,2097.04 c 0,23.5 18.96,42.55 42.34,42.55 23.39,0 42.34,-19.05 42.34,-42.55 0,-23.5 -18.95,-42.55 -42.34,-42.55 -23.38,0 -42.34,19.05 -42.34,42.55"
         style="fill:#6851ad;fill-opacity:1;fill-rule:nonzero;stroke:none"
         id="path186" />
      <path
         d="m 3480.21,2458.46 236.44,-702.25"
         style="fill:none;stroke:#ffffff;stroke-width:10;stroke-linecap:round;stroke-linejoin:round;stroke-miterlimit:10;stroke-dasharray:none;stroke-opacity:1"
         id="path188" />
      <path
         d="m 2497.44,2432.57 h 478.83"
         style="fill:none;stroke:#ffffff;stroke-width:10;stroke-linecap:round;stroke-linejoin:round;stroke-miterlimit:10;stroke-dasharray:none;stroke-opacity:1"
         id="path190" />
      <path
         d="m 3785.92,1789.56 c 0,9.25 -7.49,16.74 -16.74,16.74 -9.24,0 -16.74,-7.49 -16.74,-16.74 0,-9.24 7.5,-16.74 16.74,-16.74 9.25,0 16.74,7.5 16.74,16.74 z"
         style="fill:none;stroke:#ffffff;stroke-width:10;stroke-linecap:round;stroke-linejoin:round;stroke-miterlimit:10;stroke-dasharray:none;stroke-opacity:1"
         id="path192" />
      <path
         d="m 3829.82,1789.56 h 45.47"
         style="fill:none;stroke:#ffffff;stroke-width:10;stroke-linecap:round;stroke-linejoin:round;stroke-miterlimit:10;stroke-dasharray:none;stroke-opacity:1"
         id="path194" />
      <path
         d="m 4063.65,3044.85 c 0.66,-28.42 12.85,-56.55 34.01,-78.44 11.44,-11.83 25.39,-21.89 35.43,-34.61 10.05,-12.73 15.78,-29.49 8.45,-43.5"
         style="fill:none;stroke:#13110f;stroke-width:10;stroke-linecap:round;stroke-linejoin:round;stroke-miterlimit:10;stroke-dasharray:none;stroke-opacity:1"
         id="path196" />
      <path
         d="m 4011.43,3130.25 c 3.68,2.86 7.35,5.72 11.03,8.58"
         style="fill:none;stroke:#13110f;stroke-width:10;stroke-linecap:round;stroke-linejoin:round;stroke-miterlimit:10;stroke-dasharray:none;stroke-opacity:1"
         id="path198" />
      <path
         d="m 4115.1,2927.5 c -7.85,11.62 -19.01,20.77 -26.49,32.64 -14.52,23.03 -13.06,52.21 -18.06,78.97 -11.49,61.48 -62.47,113.66 -123.66,126.59 -61.19,12.93 -128.92,-14.17 -164.3,-65.74 -19.48,-28.38 -29.18,-62.1 -41.48,-94.25 -12.3,-32.15 -28.58,-64.59 -56.66,-84.49 l 434.34,-33.05 c 8.14,11.42 4.15,27.7 -3.69,39.33"
         style="fill:#13110f;fill-opacity:1;fill-rule:nonzero;stroke:none"
         id="path200" />
      <path
         d="m 4044.47,2847.01 c -17.14,2.48 -38.22,3.89 -55.36,6.37 -1.16,20.01 -2.28,39.77 -3.43,59.79 21.42,0.26 41.85,15.43 48.3,35.86 6.46,20.43 -1.55,44.57 -18.93,57.1 -17.38,12.52 -42.82,12.48 -60.16,-0.11 -3.58,14.32 -9.5,31.26 -13.08,45.57 -14.77,-4.43 -33.76,8.22 -36.46,23.4 -2.95,-6.89 -15.39,-9.35 -22.83,-8.39 -7.43,0.95 -14,5.26 -19.82,9.99 -5.82,4.72 -11.28,10.03 -17.88,13.59 -10.1,5.45 -22.57,6.3 -33.32,2.28 -10.76,-4.02 -19.61,-12.85 -23.65,-23.6 -13.67,-36.32 -31.34,-72.53 -31.32,-111.34 0.02,-23.65 8.83,-45 24.7,-62.54 15.88,-17.54 38.71,-28.6 62.32,-30.17 0.12,-7.76 0.51,-12.23 0.63,-19.99 -13.06,-2.47 -31.63,-4.79 -44.7,-7.26 10.01,-32.32 33.94,-54.49 66.69,-62.98 32.75,-8.49 68.14,-2.47 98.76,11.93 30.61,14.4 56.2,36.01 79.54,60.5"
         style="fill:#c23c49;fill-opacity:1;fill-rule:nonzero;stroke:none"
         id="path202" />
      <path
         d="m 3971.8,2972.74 c 8.1,2.37 16.19,4.73 24.29,7.09"
         style="fill:none;stroke:#13110f;stroke-width:10;stroke-linecap:round;stroke-linejoin:round;stroke-miterlimit:10;stroke-dasharray:none;stroke-opacity:1"
         id="path204" />
      <path
         d="m 3967.2,2912.39 c 6.43,-0.84 12.85,-1.68 19.27,-2.51"
         style="fill:none;stroke:#13110f;stroke-width:10;stroke-linecap:round;stroke-linejoin:round;stroke-miterlimit:10;stroke-dasharray:none;stroke-opacity:1"
         id="path206" />
      <path
         d="m 3837.82,2862.89 c 21.89,-5.46 45.63,-3.19 66.08,6.32"
         style="fill:none;stroke:#13110f;stroke-width:10;stroke-linecap:round;stroke-linejoin:round;stroke-miterlimit:10;stroke-dasharray:none;stroke-opacity:1"
         id="path208" />
      <path
         d="m 3812.49,3093.59 c 6.48,3.34 14.72,0.99 20.28,-3.73 5.55,-4.73 9,-11.41 12.32,-17.9"
         style="fill:none;stroke:#13110f;stroke-width:10;stroke-linecap:round;stroke-linejoin:round;stroke-miterlimit:10;stroke-dasharray:none;stroke-opacity:1"
         id="path210" />
      <path
         d="m 3900.11,2994.87 c 0,5.53 -4.48,10 -10,10 -5.53,0 -10,-4.47 -10,-10 0,-5.52 4.47,-10 10,-10 5.52,0 10,4.48 10,10"
         style="fill:#13110f;fill-opacity:1;fill-rule:nonzero;stroke:none"
         id="path212" />
      <path
         d="m 3802.08,3012.59 c 0,5.53 -4.47,10 -10,10 -5.52,0 -10,-4.47 -10,-10 0,-5.52 4.48,-10 10,-10 5.53,0 10,4.48 10,10"
         style="fill:#13110f;fill-opacity:1;fill-rule:nonzero;stroke:none"
         id="path214" />
      <path
         d="m 3835.8,3010.5 c -4.12,-10.11 -8.23,-20.23 -12.35,-30.34 3.52,-0.78 6.53,-2.88 10.04,-3.66"
         style="fill:none;stroke:#13110f;stroke-width:10;stroke-linecap:round;stroke-linejoin:round;stroke-miterlimit:10;stroke-dasharray:none;stroke-opacity:1"
         id="path216" />
      <path
         d="m 3848.54,2957.17 c 1.73,-4.74 7.18,-7.8 12.13,-6.8 4.94,0.99 8.79,5.91 8.55,10.95"
         style="fill:none;stroke:#13110f;stroke-width:10;stroke-linecap:round;stroke-linejoin:round;stroke-miterlimit:10;stroke-dasharray:none;stroke-opacity:1"
         id="path218" />
      <path
         d="m 3782.33,3052.49 c 6,5.6 15.01,7.77 22.9,5.51 7.89,-2.26 14.38,-8.86 16.51,-16.79"
         style="fill:none;stroke:#13110f;stroke-width:10;stroke-linecap:round;stroke-linejoin:round;stroke-miterlimit:10;stroke-dasharray:none;stroke-opacity:1"
         id="path220" />
      <path
         d="m 3870.71,3036.25 c 9.95,-0.79 19.9,-1.58 29.85,-2.37"
         style="fill:none;stroke:#13110f;stroke-width:10;stroke-linecap:round;stroke-linejoin:round;stroke-miterlimit:10;stroke-dasharray:none;stroke-opacity:1"
         id="path222" />
      <path
         d="m 2083.98,2571.36 c -33.89,0 -67.8,1.72 -101.61,5.19 -13.73,1.41 -23.72,13.68 -22.31,27.41 1.41,13.73 13.66,23.74 27.41,22.31 411.39,-42.22 827.8,200.08 928.23,540.07 3.91,13.24 17.85,20.81 31.05,16.89 13.24,-3.92 20.79,-17.81 16.89,-31.05 -50.11,-169.64 -180.77,-328.61 -358.47,-436.15 -156.33,-94.62 -338.22,-144.67 -521.19,-144.67"
         style="fill:#998ccd;fill-opacity:1;fill-rule:nonzero;stroke:none"
         id="path224" />
      <path
         d="m 2353.25,2658.46 c 3.4,-15.49 6.8,-30.98 10.19,-46.47"
         style="fill:none;stroke:#13110f;stroke-width:10;stroke-linecap:round;stroke-linejoin:round;stroke-miterlimit:10;stroke-dasharray:none;stroke-opacity:1"
         id="path226" />
      <path
         d="m 2395.35,2668.31 c 4.93,-12.24 9.85,-24.48 14.77,-36.72"
         style="fill:none;stroke:#13110f;stroke-width:10;stroke-linecap:round;stroke-linejoin:round;stroke-miterlimit:10;stroke-dasharray:none;stroke-opacity:1"
         id="path228" />
      <path
         d="m 2443.85,2690.25 c 4.14,-14.69 8.28,-29.37 12.43,-44.05"
         style="fill:none;stroke:#13110f;stroke-width:10;stroke-linecap:round;stroke-linejoin:round;stroke-miterlimit:10;stroke-dasharray:none;stroke-opacity:1"
         id="path230" />
      <path
         d="m 2488.86,2707.69 c 5.72,-11.43 11.44,-22.86 17.17,-34.29"
         style="fill:none;stroke:#13110f;stroke-width:10;stroke-linecap:round;stroke-linejoin:round;stroke-miterlimit:10;stroke-dasharray:none;stroke-opacity:1"
         id="path232" />
      <path
         d="m 2538.7,2733.77 c 7.49,-13.81 14.98,-27.61 22.47,-41.42"
         style="fill:none;stroke:#13110f;stroke-width:10;stroke-linecap:round;stroke-linejoin:round;stroke-miterlimit:10;stroke-dasharray:none;stroke-opacity:1"
         id="path234" />
      <path
         d="m 2581.14,2758.63 c 8.6,-13.31 17.2,-26.63 25.8,-39.94"
         style="fill:none;stroke:#13110f;stroke-width:10;stroke-linecap:round;stroke-linejoin:round;stroke-miterlimit:10;stroke-dasharray:none;stroke-opacity:1"
         id="path236" />
      <path
         d="m 2623.3,2790.79 c 10.59,-13.9 21.19,-27.8 31.78,-41.7"
         style="fill:none;stroke:#13110f;stroke-width:10;stroke-linecap:round;stroke-linejoin:round;stroke-miterlimit:10;stroke-dasharray:none;stroke-opacity:1"
         id="path238" />
      <path
         d="m 2666.82,2814.88 c 8.91,-12.3 17.83,-24.6 26.74,-36.9"
         style="fill:none;stroke:#13110f;stroke-width:10;stroke-linecap:round;stroke-linejoin:round;stroke-miterlimit:10;stroke-dasharray:none;stroke-opacity:1"
         id="path240" />
      <path
         d="m 2858.4,3277.83 c 8.41,45.09 45.35,77.65 88.66,82.53 l -17.86,-95.67 58.28,-10.82 17.86,95.67 c 38.65,-20.1 61.36,-63.72 52.94,-108.81 -10.31,-55.24 -63.41,-91.71 -118.61,-81.46 -55.2,10.24 -91.58,63.33 -81.27,118.56"
         style="fill:#6851ad;fill-opacity:1;fill-rule:nonzero;stroke:none"
         id="path242" />
      <path
         d="m 2971.42,3186.66 c 32.04,1.49 61.03,28.29 65.02,60.11"
         style="fill:none;stroke:#13110f;stroke-width:10;stroke-linecap:round;stroke-linejoin:round;stroke-miterlimit:10;stroke-dasharray:none;stroke-opacity:1"
         id="path244" />
      <path
         d="m 1601.45,2280.38 v 0 c 134.55,-30.25 269.53,36.15 317.55,156.19 l 121.23,303.13 -639.37,143.73 -19.81,-325.92 c -7.84,-129.08 85.84,-246.88 220.4,-277.13"
         style="fill:#6851ad;fill-opacity:1;fill-rule:nonzero;stroke:none"
         id="path246" />
      <path
         d="m 1414.39,2517.49 c 15.92,-94.31 91.28,-172.14 180.62,-206.3"
         style="fill:none;stroke:#ffffff;stroke-width:10;stroke-linecap:round;stroke-linejoin:round;stroke-miterlimit:10;stroke-dasharray:none;stroke-opacity:1"
         id="path248" />
      <path
         d="m 1504.63,2715.42 c 3.38,15.07 18.32,24.54 33.37,21.16 15.05,-3.38 24.51,-18.34 21.13,-33.41 -3.38,-15.07 -18.32,-24.54 -33.37,-21.16 -15.04,3.39 -24.5,18.34 -21.13,33.41"
         style="fill:#f58614;fill-opacity:1;fill-rule:nonzero;stroke:none"
         id="path250" />
      <path
         d="m 1500.38,2745.34 c 10.86,11.13 27.52,16.26 42.77,13.17 15.24,-3.09 28.58,-14.31 34.25,-28.8"
         style="fill:none;stroke:#13110f;stroke-width:10;stroke-linecap:round;stroke-linejoin:round;stroke-miterlimit:10;stroke-dasharray:none;stroke-opacity:1"
         id="path252" />
      <path
         d="m 1602.9,2693.33 c 3.38,15.07 18.32,24.54 33.37,21.16 15.05,-3.39 24.51,-18.34 21.13,-33.41 -3.38,-15.07 -18.32,-24.54 -33.37,-21.16 -15.04,3.39 -24.5,18.34 -21.13,33.41"
         style="fill:#ffffff;fill-opacity:1;fill-rule:nonzero;stroke:none"
         id="path254" />
      <path
         d="m 1604.25,2727.17 c 12.12,8.79 28.91,10.68 42.67,4.8 13.77,-5.88 24.02,-19.31 26.05,-34.14"
         style="fill:none;stroke:#13110f;stroke-width:10;stroke-linecap:round;stroke-linejoin:round;stroke-miterlimit:10;stroke-dasharray:none;stroke-opacity:1"
         id="path256" />
      <path
         d="m 1393.2,2732.68 c -3.69,0 -7.44,0.82 -10.98,2.55 -257.81,126.37 -325.89,354.12 -328.66,363.75 -3.82,13.27 3.84,27.11 17.1,30.93 13.25,3.8 27.08,-3.82 30.92,-17.06 v 0 c 0.62,-2.16 65.48,-216.48 302.64,-332.73 12.39,-6.08 17.51,-21.05 11.44,-33.45 -4.34,-8.85 -13.22,-13.99 -22.46,-13.99"
         style="fill:#998ccd;fill-opacity:1;fill-rule:nonzero;stroke:none"
         id="path258" />
      <path
         d="m 1138.85,2935.25 c 16.33,10.62 32.67,21.23 49,31.85"
         style="fill:none;stroke:#13110f;stroke-width:10;stroke-linecap:round;stroke-linejoin:round;stroke-miterlimit:10;stroke-dasharray:none;stroke-opacity:1"
         id="path260" />
      <path
         d="m 1158.66,2908.04 c 15.51,11.44 31.02,22.89 46.53,34.33"
         style="fill:none;stroke:#13110f;stroke-width:10;stroke-linecap:round;stroke-linejoin:round;stroke-miterlimit:10;stroke-dasharray:none;stroke-opacity:1"
         id="path262" />
      <path
         d="m 1172.75,2884.33 c 13.91,11.4 27.83,22.8 41.74,34.19"
         style="fill:none;stroke:#13110f;stroke-width:10;stroke-linecap:round;stroke-linejoin:round;stroke-miterlimit:10;stroke-dasharray:none;stroke-opacity:1"
         id="path264" />
      <path
         d="m 1194.98,2864.48 c 11.44,13.88 22.88,27.76 34.32,41.63"
         style="fill:none;stroke:#13110f;stroke-width:10;stroke-linecap:round;stroke-linejoin:round;stroke-miterlimit:10;stroke-dasharray:none;stroke-opacity:1"
         id="path266" />
      <path
         d="m 1244.06,2893.82 c -8.17,-13.07 -16.34,-26.14 -24.5,-39.2"
         style="fill:none;stroke:#13110f;stroke-width:10;stroke-linecap:round;stroke-linejoin:round;stroke-miterlimit:10;stroke-dasharray:none;stroke-opacity:1"
         id="path268" />
      <path
         d="m 1261.2,2874.22 c -11.43,-13.88 -22.86,-27.77 -34.3,-41.65"
         style="fill:none;stroke:#13110f;stroke-width:10;stroke-linecap:round;stroke-linejoin:round;stroke-miterlimit:10;stroke-dasharray:none;stroke-opacity:1"
         id="path270" />
      <path
         d="m 939.512,3145.93 c -22.117,40.19 -14.239,88.79 16.133,120.05 l 46.925,-85.27 51.9,28.64 -46.92,85.26 c 42.62,9 87.86,-10.3 109.98,-50.48 27.09,-49.23 9.2,-111.12 -39.96,-138.24 -49.16,-27.11 -110.968,-9.19 -138.058,40.04"
         style="fill:#6851ad;fill-opacity:1;fill-rule:nonzero;stroke:none"
         id="path272" />
      <path
         d="m 966.719,3140.62 c 33.891,-24.51 85.231,-20.72 115.161,8.49"
         style="fill:none;stroke:#13110f;stroke-width:10;stroke-linecap:round;stroke-linejoin:round;stroke-miterlimit:10;stroke-dasharray:none;stroke-opacity:1"
         id="path274" />
      <path
         d="m 2433.75,3608.92 c -17.96,-24.14 -35.92,-48.28 -53.88,-72.42"
         style="fill:none;stroke:#ffffff;stroke-width:10;stroke-linecap:round;stroke-linejoin:round;stroke-miterlimit:10;stroke-dasharray:none;stroke-opacity:1"
         id="path276" />
      <path
         d="m 2421.07,3622.63 c -2.39,14.31 7.27,27.85 21.56,30.24 14.3,2.38 27.82,-7.29 30.21,-21.61 2.38,-14.31 -7.27,-27.85 -21.56,-30.23 -14.3,-2.38 -27.82,7.29 -30.21,21.6"
         style="fill:#6851ad;fill-opacity:1;fill-rule:nonzero;stroke:none"
         id="path278" />
      <path
         d="m 2223.88,3455.12 c -8.68,52.02 26.4,101.21 78.35,109.87 51.94,8.67 101.09,-26.48 109.76,-78.49 8.68,-52.02 -26.4,-101.21 -78.35,-109.87 -51.94,-8.67 -101.09,26.48 -109.76,78.49"
         style="fill:#6851ad;fill-opacity:1;fill-rule:nonzero;stroke:none"
         id="path280" />
      <path
         d="m 1909.31,3644.83 c 295.25,49.24 585.45,-215.76 648.18,-591.89 l -1069.2,-178.32 c -62.73,376.13 125.76,720.96 421.02,770.21"
         style="fill:#998ccd;fill-opacity:1;fill-rule:nonzero;stroke:none"
         id="path282" />
      <path
         d="m 1991.69,3412.19 c -5.48,32.86 16.68,63.93 49.49,69.4 32.82,5.48 63.86,-16.72 69.34,-49.58 5.49,-32.86 -16.68,-63.94 -49.49,-69.41 -32.82,-5.47 -63.86,16.73 -69.34,49.59"
         style="fill:#6851ad;fill-opacity:1;fill-rule:nonzero;stroke:none"
         id="path284" />
      <path
         d="m 1973.7,3459.96 c 8.66,24.63 30.81,44.02 56.36,49.35 25.55,5.34 53.61,-3.59 71.39,-22.7"
         style="fill:none;stroke:#13110f;stroke-width:10;stroke-linecap:round;stroke-linejoin:round;stroke-miterlimit:10;stroke-dasharray:none;stroke-opacity:1"
         id="path286" />
      <path
         d="m 1844.56,3271.38 c 49.81,-46.66 118.65,-72.38 186.85,-69.81 68.2,2.58 134.9,33.41 181.05,83.69"
         style="fill:none;stroke:#ffffff;stroke-width:20;stroke-linecap:round;stroke-linejoin:round;stroke-miterlimit:10;stroke-dasharray:none;stroke-opacity:1"
         id="path288" />
      <path
         d="m 1692.49,3479.34 c 54.3,77.14 143.66,128.54 237.64,136.69"
         style="fill:none;stroke:#ffffff;stroke-width:10;stroke-linecap:round;stroke-linejoin:round;stroke-miterlimit:10;stroke-dasharray:none;stroke-opacity:1"
         id="path290" />
      <path
         d="m 1517.5,3274.83 c -16.6,14.09 -28.5,33.91 -32.36,57.08 -8.68,52.02 26.4,101.21 78.35,109.88 12.77,2.12 25.36,1.61 37.23,-1.15 0,0 27.92,-109.15 -83.22,-165.81"
         style="fill:#6851ad;fill-opacity:1;fill-rule:nonzero;stroke:none"
         id="path292" />
      <path
         d="m 1417.75,3437.06 c 27.47,-15.15 54.94,-30.31 82.42,-45.47"
         style="fill:none;stroke:#ffffff;stroke-width:10;stroke-linecap:round;stroke-linejoin:round;stroke-miterlimit:10;stroke-dasharray:none;stroke-opacity:1"
         id="path294" />
      <path
         d="m 1376.01,3440.64 c -2.39,14.31 7.26,27.85 21.56,30.23 14.29,2.39 27.82,-7.28 30.21,-21.6 2.38,-14.31 -7.27,-27.85 -21.57,-30.23 -14.29,-2.39 -27.81,7.28 -30.2,21.6"
         style="fill:#6851ad;fill-opacity:1;fill-rule:nonzero;stroke:none"
         id="path296" />
    </g>
  </g>
</svg>
