<?xml version="1.0" encoding="UTF-8" standalone="no"?>
<!-- Created with Inkscape (http://www.inkscape.org/) -->

<svg
   version="1.1"
   id="svg2"
   width="666.66669"
   height="666.66669"
   viewBox="0 0 666.66669 666.66669"
   sodipodi:docname="6491953.eps"
   xmlns:inkscape="http://www.inkscape.org/namespaces/inkscape"
   xmlns:sodipodi="http://sodipodi.sourceforge.net/DTD/sodipodi-0.dtd"
   xmlns="http://www.w3.org/2000/svg"
   xmlns:svg="http://www.w3.org/2000/svg">
  <defs
     id="defs6" />
  <sodipodi:namedview
     id="namedview4"
     pagecolor="#ffffff"
     bordercolor="#000000"
     borderopacity="0.25"
     inkscape:showpageshadow="2"
     inkscape:pageopacity="0.0"
     inkscape:pagecheckerboard="0"
     inkscape:deskcolor="#d1d1d1" />
  <g
     id="g8"
     inkscape:groupmode="layer"
     inkscape:label="ink_ext_XXXXXX"
     transform="matrix(1.3333333,0,0,-1.3333333,0,666.66667)">
    <g
       id="g10"
       transform="scale(0.1)">
      <path
         d="M 5000,0 H 0 V 5000 H 5000 V 0"
         style="fill:#cac4e7;fill-opacity:1;fill-rule:nonzero;stroke:none"
         id="path12" />
      <path
         d="M 3918.9,1484.9 C 3661.5,1157 3284.6,925.102 2875.8,843.398 2583,784.801 2324.3,690.801 2038.3,695.602 c -44.9,0.699 -90.4,4 -136.9,10.097 -328.8,43.5 -640.6,200.602 -874.7,435.201 -55.2,55.3 -106.098,114.9 -151.899,178.4 C 635,1651.7 617.699,2085.9 613.199,2495.8 c -4.797,424.9 166,849 463.801,1152.1 297.7,303 718.8,481.2 1143.7,484 474.3,3.1 987.9,-23 1380.9,-288.7 392.9,-265.7 669.7,-710.4 695,-1184 22.3,-416.2 -120.4,-846.4 -377.7,-1174.3"
         style="fill:#dedaf0;fill-opacity:1;fill-rule:nonzero;stroke:none"
         id="path14" />
      <path
         d="M 4300.73,1796.85 H 3109.6 c -46.94,0 -82.55,42.32 -74.52,88.58 l 357.04,2055.83 c 9.09,52.3 54.48,90.49 107.57,90.49 h 1191.13 c 46.94,0 82.55,-42.32 74.52,-88.57 L 4408.3,1887.34 c -9.09,-52.3 -54.48,-90.49 -107.57,-90.49"
         style="fill:#272a55;fill-opacity:1;fill-rule:nonzero;stroke:none"
         id="path16" />
      <path
         d="m 4143.73,3965.66 v 0 c -11.22,-64.62 -67.3,-111.8 -132.88,-111.8 h -14.44 c -59.25,0 -104.19,53.42 -94.05,111.8 v 0 H 3438.11 L 3097.35,2003.53 h 1205.31 l 340.77,1962.13 h -499.7"
         style="fill:#13110f;fill-opacity:1;fill-rule:nonzero;stroke:none"
         id="path18" />
      <path
         d="m 4057.77,3953.82 c 0,21.88 -17.74,39.63 -39.62,39.63 -21.89,0 -39.63,-17.75 -39.63,-39.63 0,-21.89 17.74,-39.63 39.63,-39.63 21.88,0 39.62,17.74 39.62,39.63"
         style="fill:#6851ad;fill-opacity:1;fill-rule:nonzero;stroke:none"
         id="path20" />
      <path
         d="M 4701.42,4031.75 4311.34,1796.85"
         style="fill:none;stroke:#13110f;stroke-width:10;stroke-linecap:round;stroke-linejoin:round;stroke-miterlimit:10;stroke-dasharray:none;stroke-opacity:1"
         id="path22" />
      <path
         d="m 3602.54,1894.82 c 67.39,-0.56 134.78,-1.12 202.17,-1.68"
         style="fill:none;stroke:#13110f;stroke-width:10;stroke-linecap:round;stroke-linejoin:round;stroke-miterlimit:10;stroke-dasharray:none;stroke-opacity:1"
         id="path24" />
      <path
         d="M 3533.84,4259.87 H 2034.06 v -333.56 h 1191.56 l 60.36,-104.55 60.36,104.55 h 187.5 v 333.56"
         style="fill:#f58614;fill-opacity:1;fill-rule:nonzero;stroke:none"
         id="path26" />
      <path
         d="M 1499.34,3714.63 H 2999.12 V 3381.07 H 1807.56 l -60.37,-104.54 -60.35,104.54 h -187.5 v 333.56"
         style="fill:#ffffff;fill-opacity:1;fill-rule:nonzero;stroke:none"
         id="path28" />
      <path
         d="m 2830.32,1222.75 99.26,-57.31 v 114.62 z"
         style="fill:#6851ad;fill-opacity:1;fill-rule:nonzero;stroke:none"
         id="path30" />
      <path
         d="m 4325.9,1558.82 -57.31,-99.27 h 114.62 z"
         style="fill:#6851ad;fill-opacity:1;fill-rule:nonzero;stroke:none"
         id="path32" />
      <path
         d="m 624.34,3442.27 57.308,99.26 H 567.031 Z"
         style="fill:#6851ad;fill-opacity:1;fill-rule:nonzero;stroke:none"
         id="path34" />
      <path
         d="m 2409.06,1661.36 c 0,8.79 -7.12,15.92 -15.91,15.92 -8.79,0 -15.91,-7.13 -15.91,-15.92 0,-8.78 7.12,-15.91 15.91,-15.91 8.79,0 15.91,7.13 15.91,15.91"
         style="fill:#6851ad;fill-opacity:1;fill-rule:nonzero;stroke:none"
         id="path36" />
      <path
         d="m 2611.07,1731.37 c 0,8.78 -7.12,15.91 -15.91,15.91 -8.79,0 -15.91,-7.13 -15.91,-15.91 0,-8.79 7.12,-15.92 15.91,-15.92 8.79,0 15.91,7.13 15.91,15.92"
         style="fill:#6851ad;fill-opacity:1;fill-rule:nonzero;stroke:none"
         id="path38" />
      <path
         d="m 2355.26,1112.55 c 0,8.78 -7.13,15.91 -15.91,15.91 -8.79,0 -15.92,-7.13 -15.92,-15.91 0,-8.79 7.13,-15.92 15.92,-15.92 8.78,0 15.91,7.13 15.91,15.92"
         style="fill:#6851ad;fill-opacity:1;fill-rule:nonzero;stroke:none"
         id="path40" />
      <path
         d="m 3630.5,1661.36 c 0,8.79 -7.12,15.92 -15.91,15.92 -8.79,0 -15.91,-7.13 -15.91,-15.92 0,-8.78 7.12,-15.91 15.91,-15.91 8.79,0 15.91,7.13 15.91,15.91"
         style="fill:#6851ad;fill-opacity:1;fill-rule:nonzero;stroke:none"
         id="path42" />
      <path
         d="m 2992.8,2482.88 c 0,8.79 -7.12,15.91 -15.91,15.91 -8.79,0 -15.91,-7.12 -15.91,-15.91 0,-8.79 7.12,-15.92 15.91,-15.92 8.79,0 15.91,7.13 15.91,15.92"
         style="fill:#6851ad;fill-opacity:1;fill-rule:nonzero;stroke:none"
         id="path44" />
      <path
         d="m 4174.15,1308.22 c 0,8.79 -7.12,15.91 -15.91,15.91 -8.79,0 -15.91,-7.12 -15.91,-15.91 0,-8.79 7.12,-15.91 15.91,-15.91 8.79,0 15.91,7.12 15.91,15.91"
         style="fill:#6851ad;fill-opacity:1;fill-rule:nonzero;stroke:none"
         id="path46" />
      <path
         d="m 4524.34,1715.45 c 0,8.79 -7.13,15.92 -15.92,15.92 -8.79,0 -15.91,-7.13 -15.91,-15.92 0,-8.79 7.12,-15.91 15.91,-15.91 8.79,0 15.92,7.12 15.92,15.91"
         style="fill:#6851ad;fill-opacity:1;fill-rule:nonzero;stroke:none"
         id="path48" />
      <path
         d="m 2762.81,2955.94 c 0,8.79 -7.13,15.92 -15.92,15.92 -8.78,0 -15.91,-7.13 -15.91,-15.92 0,-8.78 7.13,-15.91 15.91,-15.91 8.79,0 15.92,7.13 15.92,15.91"
         style="fill:#6851ad;fill-opacity:1;fill-rule:nonzero;stroke:none"
         id="path50" />
      <path
         d="m 3894.29,4262.89 c 0,8.79 -7.13,15.91 -15.92,15.91 -8.78,0 -15.91,-7.12 -15.91,-15.91 0,-8.79 7.13,-15.92 15.91,-15.92 8.79,0 15.92,7.13 15.92,15.92"
         style="fill:#6851ad;fill-opacity:1;fill-rule:nonzero;stroke:none"
         id="path52" />
      <path
         d="m 959.027,3114.1 c 0,8.78 -7.125,15.91 -15.914,15.91 -8.789,0 -15.91,-7.13 -15.91,-15.91 0,-8.79 7.121,-15.92 15.91,-15.92 8.789,0 15.914,7.13 15.914,15.92"
         style="fill:#6851ad;fill-opacity:1;fill-rule:nonzero;stroke:none"
         id="path54" />
      <path
         d="m 764.301,1509.19 c 0,8.78 -7.125,15.91 -15.914,15.91 -8.789,0 -15.914,-7.13 -15.914,-15.91 0,-8.79 7.125,-15.92 15.914,-15.92 8.789,0 15.914,7.13 15.914,15.92"
         style="fill:#6851ad;fill-opacity:1;fill-rule:nonzero;stroke:none"
         id="path56" />
      <path
         d="m 640.254,1247.21 c 0,8.79 -7.125,15.91 -15.914,15.91 -8.789,0 -15.914,-7.12 -15.914,-15.91 0,-8.79 7.125,-15.92 15.914,-15.92 8.789,0 15.914,7.13 15.914,15.92"
         style="fill:#6851ad;fill-opacity:1;fill-rule:nonzero;stroke:none"
         id="path58" />
      <path
         d="m 547.785,2998.38 c 0,8.79 -7.125,15.91 -15.914,15.91 -8.785,0 -15.91,-7.12 -15.91,-15.91 0,-8.79 7.125,-15.91 15.91,-15.91 8.789,0 15.914,7.12 15.914,15.91"
         style="fill:#6851ad;fill-opacity:1;fill-rule:nonzero;stroke:none"
         id="path60" />
      <path
         d="m 3676.82,4418.17 c 0,8.79 -7.12,15.91 -15.91,15.91 -8.79,0 -15.92,-7.12 -15.92,-15.91 0,-8.79 7.13,-15.92 15.92,-15.92 8.79,0 15.91,7.13 15.91,15.92"
         style="fill:#6851ad;fill-opacity:1;fill-rule:nonzero;stroke:none"
         id="path62" />
      <path
         d="m 2799.86,3821.76 c 0,8.79 -7.12,15.92 -15.91,15.92 -8.79,0 -15.91,-7.13 -15.91,-15.92 0,-8.78 7.12,-15.91 15.91,-15.91 8.79,0 15.91,7.13 15.91,15.91"
         style="fill:#6851ad;fill-opacity:1;fill-rule:nonzero;stroke:none"
         id="path64" />
      <path
         d="m 1753.08,3914.19 v 0 c -9.88,-30.7 -53.32,-30.7 -63.2,0 v 0 c -9.88,30.7 -53.31,30.7 -63.19,0 v 0 c -9.88,-30.7 -53.32,-30.7 -63.2,0 v 0 c -9.88,30.7 -53.31,30.7 -63.19,0 v 0 c -9.88,-30.7 -53.32,-30.7 -63.2,0 v 0 c -9.88,30.7 -53.31,30.7 -63.19,0 v 0 c -9.88,-30.7 -53.32,-30.7 -63.19,0 h -0.01 c -9.88,30.7 -53.31,30.7 -63.19,0 v 0 c -9.88,-30.7 -53.31,-30.7 -63.19,0 v 0 c -9.88,30.7 -53.32,30.7 -63.2,0"
         style="fill:none;stroke:#13110f;stroke-width:10;stroke-linecap:round;stroke-linejoin:round;stroke-miterlimit:10;stroke-dasharray:none;stroke-opacity:1"
         id="path66" />
      <path
         d="m 3913.14,1263.12 v 0 c -9.88,-30.7 -53.32,-30.7 -63.2,0 v 0 c -9.88,30.7 -53.31,30.7 -63.19,0 v 0 c -9.88,-30.7 -53.32,-30.7 -63.2,0 v 0 c -9.88,30.7 -53.31,30.7 -63.19,0 v 0 c -9.88,-30.7 -53.32,-30.7 -63.2,0 v 0 c -9.88,30.7 -53.31,30.7 -63.19,0 v 0 c -9.88,-30.7 -53.32,-30.7 -63.2,0 v 0 c -9.88,30.7 -53.31,30.7 -63.19,0 v 0 c -9.88,-30.7 -53.32,-30.7 -63.2,0 v 0 c -9.88,30.7 -53.31,30.7 -63.19,0"
         style="fill:none;stroke:#13110f;stroke-width:10;stroke-linecap:round;stroke-linejoin:round;stroke-miterlimit:10;stroke-dasharray:none;stroke-opacity:1"
         id="path68" />
      <path
         d="m 2617.97,3191.18 v 0 c -9.88,-30.7 -53.32,-30.7 -63.2,0 v 0 c -9.88,30.7 -53.31,30.7 -63.19,0 v 0 c -9.88,-30.7 -53.32,-30.7 -63.2,0 v 0 c -9.88,30.7 -53.31,30.7 -63.19,0 v 0 c -9.88,-30.7 -53.32,-30.7 -63.2,0 v 0 c -9.88,30.7 -53.31,30.7 -63.19,0 v 0 c -9.88,-30.7 -53.32,-30.7 -63.2,0 v 0 c -9.88,30.7 -53.31,30.7 -63.19,0 v 0 c -9.88,-30.7 -53.31,-30.7 -63.2,0 v 0 c -9.88,30.7 -53.31,30.7 -63.19,0"
         style="fill:none;stroke:#13110f;stroke-width:10;stroke-linecap:round;stroke-linejoin:round;stroke-miterlimit:10;stroke-dasharray:none;stroke-opacity:1"
         id="path70" />
      <path
         d="m 2511.34,2501.77 c -69.08,79.46 -169.99,122.36 -267.24,162.69 l -131.72,-379.89 c 30.55,-13.03 61.1,-26.06 91.65,-39.1 -127.9,-121.88 -242.42,-255.63 -337.65,-404.45 28.44,-86.57 59.41,-169.47 102.33,-249.85 40.77,-4.16 80.42,-11.2 121.19,-15.36 21.5,29.21 39.74,56.25 61.25,85.47 -16.37,14.65 -49.94,1.86 -57.33,-18.82 -3.06,14.2 -5.04,31.42 -8.09,45.63 144.05,99.55 278.28,216.91 403.24,339.59 61.78,60.65 102.02,148.19 105.87,234.69 3.84,86.5 -26.7,174.06 -83.5,239.4"
         style="fill:#f68571;fill-opacity:1;fill-rule:nonzero;stroke:none"
         id="path72" />
      <path
         d="m 2201.64,2245.16 c 11.26,10.36 22.52,20.73 33.79,31.1"
         style="fill:none;stroke:#13110f;stroke-width:10;stroke-linecap:round;stroke-linejoin:round;stroke-miterlimit:10;stroke-dasharray:none;stroke-opacity:1"
         id="path74" />
      <path
         d="m 2077.96,1731.46 c 2.98,-16.63 5.95,-33.26 8.93,-49.88"
         style="fill:none;stroke:#13110f;stroke-width:10;stroke-linecap:round;stroke-linejoin:round;stroke-miterlimit:10;stroke-dasharray:none;stroke-opacity:1"
         id="path76" />
      <path
         d="m 2038.3,695.602 c -44.9,0.699 -90.4,4 -136.9,10.097 -328.8,43.5 -640.6,200.602 -874.7,435.201 -1.5,259.4 38.3,519.1 118,765.8 257.3,103.6 546.6,129.7 812.3,50.7 88,-413.6 113.9,-839.9 81.3,-1261.798"
         style="fill:#6851ad;fill-opacity:1;fill-rule:nonzero;stroke:none"
         id="path78" />
      <path
         d="m 1627.35,1525.92 c 22.55,-150.01 45.09,-300.01 67.64,-450.02 15.71,-104.509 13.89,-205.298 -18.41,-303.349"
         style="fill:none;stroke:#13110f;stroke-width:10;stroke-linecap:round;stroke-linejoin:round;stroke-miterlimit:10;stroke-dasharray:none;stroke-opacity:1"
         id="path80" />
      <path
         d="m 1121.59,1824.96 c 282.85,11.73 565.71,23.46 848.57,35.19"
         style="fill:none;stroke:#13110f;stroke-width:10;stroke-linecap:round;stroke-linejoin:round;stroke-miterlimit:10;stroke-dasharray:none;stroke-opacity:1"
         id="path82" />
      <path
         d="m 1304.74,1829.86 c -28.09,-101.05 -101.47,-188.58 -196.06,-233.88"
         style="fill:none;stroke:#13110f;stroke-width:10;stroke-linecap:round;stroke-linejoin:round;stroke-miterlimit:10;stroke-dasharray:none;stroke-opacity:1"
         id="path84" />
      <path
         d="m 1856.16,1853.23 c 54.19,-85.32 108.39,-170.65 162.58,-255.98"
         style="fill:none;stroke:#13110f;stroke-width:10;stroke-linecap:round;stroke-linejoin:round;stroke-miterlimit:10;stroke-dasharray:none;stroke-opacity:1"
         id="path86" />
      <path
         d="m 1003.87,1977.7 c -65.218,46.97 -128.952,96.11 -194.171,143.09 33.321,28.65 66.645,57.31 99.965,85.97 L 571.34,2485.09 C 522,2436.66 466.363,2388.87 424.402,2333.93 c -41.277,-54.05 -73.488,-118.46 -73.222,-186.47 0.218,-58.18 24.461,-114.46 59.582,-160.85 35.121,-46.38 78.679,-87.91 129.183,-116.79 147.66,-84.45 294.293,-180.81 435.528,-275.61 -13.114,-12.72 -26.227,-25.44 -39.34,-38.16 -3.906,-3.79 -7.945,-7.78 -9.715,-12.93 -1.77,-5.15 -0.91,-10.77 3.887,-13.34 16.281,4.8 36.379,9.7 52.66,14.5 -10.906,-8.31 -21.117,-17.53 -30.488,-27.53 -3.571,-3.81 -7.161,-8.01 -8.082,-13.15 -0.926,-5.13 2.043,-11.9 7.207,-12.69 58.238,9.18 118.688,18.14 176.928,27.32 15.89,86.36 31.23,172.79 47.11,259.16 -44.28,75.48 -100.76,149.16 -171.77,200.31"
         style="fill:#f68571;fill-opacity:1;fill-rule:nonzero;stroke:none"
         id="path88" />
      <path
         d="m 755.551,2155.7 c 20.254,-12 40.508,-24 60.762,-36"
         style="fill:none;stroke:#13110f;stroke-width:10;stroke-linecap:round;stroke-linejoin:round;stroke-miterlimit:10;stroke-dasharray:none;stroke-opacity:1"
         id="path90" />
      <path
         d="m 972.043,1594.98 c 18.574,-12.1 37.147,-24.2 55.717,-36.3"
         style="fill:none;stroke:#13110f;stroke-width:10;stroke-linecap:round;stroke-linejoin:round;stroke-miterlimit:10;stroke-dasharray:none;stroke-opacity:1"
         id="path92" />
      <path
         d="m 974.09,1539.39 c 10.816,7.91 21.633,15.81 32.45,23.72"
         style="fill:none;stroke:#13110f;stroke-width:10;stroke-linecap:round;stroke-linejoin:round;stroke-miterlimit:10;stroke-dasharray:none;stroke-opacity:1"
         id="path94" />
      <path
         d="m 2290.81,2691.79 c -152.83,58.01 -307.3,113.51 -469.41,134.51 -116.47,15.1 -234.94,32.84 -351.41,47.93 -9.47,-26.5 -36.74,-45.56 -64.88,-45.35 -28.14,0.22 -56.16,20.3 -65.23,46.94 -132.82,-52.57 -265.63,-105.14 -398.446,-157.71 -151.157,-59.83 -289.082,-150.31 -424.325,-240.51 127.422,-102.29 255.516,-207.71 382.942,-310.01 46.133,31.26 91.144,60.04 137.279,91.3 36.05,-129.96 66.02,-236.47 102.07,-366.43 l 828.7,40.11 c -0.69,133.55 0.4,241.89 -0.29,375.44 50.08,-18.71 104.7,-39.87 154.79,-58.58 56.51,147.3 111.69,295.07 168.21,442.36"
         style="fill:#ffffff;fill-opacity:1;fill-rule:nonzero;stroke:none"
         id="path96" />
      <path
         d="m 1252.17,2831.07 c 16.4,-45.55 52.49,-82.99 96.34,-99.94 43.86,-16.94 94.71,-13.1 135.74,10.26 41.04,23.36 71.55,65.83 81.43,113.36"
         style="fill:none;stroke:#13110f;stroke-width:10;stroke-linecap:round;stroke-linejoin:round;stroke-miterlimit:10;stroke-dasharray:none;stroke-opacity:1"
         id="path98" />
      <path
         d="M 857.227,2674.65 C 958.723,2554.53 1023.12,2403.49 1039.52,2247.09"
         style="fill:none;stroke:#13110f;stroke-width:10;stroke-linecap:round;stroke-linejoin:round;stroke-miterlimit:10;stroke-dasharray:none;stroke-opacity:1"
         id="path100" />
      <path
         d="m 1971.74,2302.13 c -6.74,164.74 -13.48,329.48 -20.22,494.22"
         style="fill:none;stroke:#13110f;stroke-width:10;stroke-linecap:round;stroke-linejoin:round;stroke-miterlimit:10;stroke-dasharray:none;stroke-opacity:1"
         id="path102" />
      <path
         d="m 579.32,2516.14 c 115.602,-109.03 231.196,-218.07 346.793,-327.1"
         style="fill:none;stroke:#13110f;stroke-width:10;stroke-linecap:round;stroke-linejoin:round;stroke-miterlimit:10;stroke-dasharray:none;stroke-opacity:1"
         id="path104" />
      <path
         d="m 2234.23,2705.56 c -42.22,-148.87 -88.22,-296.65 -137.97,-443.17"
         style="fill:none;stroke:#13110f;stroke-width:10;stroke-linecap:round;stroke-linejoin:round;stroke-miterlimit:10;stroke-dasharray:none;stroke-opacity:1"
         id="path106" />
      <path
         d="m 1530.76,2850.07 c -10.82,1.2 -22.65,3.57 -33.47,4.78 0.27,21.63 -3.03,41.83 -2.76,63.46 -54.92,0.65 -105.41,1.98 -160.32,2.62 -2.09,-21.63 -4.17,-43.26 -6.26,-64.89 -12.9,-5.41 -30.33,-12.91 -43.22,-18.32 21.62,-52.69 71.92,-90.16 128.75,-86.43 56.83,3.73 102.73,43.71 117.28,98.78"
         style="fill:#f68571;fill-opacity:1;fill-rule:nonzero;stroke:none"
         id="path108" />
      <path
         d="m 1342.99,3159.67 c 5.38,18.21 16.98,34.52 32.42,45.58 15.44,11.05 34.63,16.78 53.6,15.99"
         style="fill:none;stroke:#13110f;stroke-width:10;stroke-linecap:round;stroke-linejoin:round;stroke-miterlimit:10;stroke-dasharray:none;stroke-opacity:1"
         id="path110" />
      <path
         d="m 1279.24,3078.1 c -6.55,0.31 -13.1,0.63 -19.65,0.94"
         style="fill:none;stroke:#13110f;stroke-width:10;stroke-linecap:round;stroke-linejoin:round;stroke-miterlimit:10;stroke-dasharray:none;stroke-opacity:1"
         id="path112" />
      <path
         d="m 1519.94,2881.19 c 34.7,20.28 55.01,62.68 49.08,102.44 -1.88,12.56 -7.71,25.02 -20.16,27.5 -7.65,18.65 -18.23,36.94 -25.88,55.59 7.04,2.01 12.54,8.58 13.28,15.87 0.75,7.29 -3.28,14.75 -9.78,18.13 7.67,3.14 12.16,12.53 9.77,20.46 -2.39,7.94 -10.88,10.5 -19.01,8.89 -8.47,35.97 -39.19,65.69 -75.42,72.97 -36.23,7.29 -76.71,-10.29 -98.43,-40.18 -9.6,4.85 -21.99,3.54 -30.36,-3.22 -8.37,-6.75 -10.93,-20.02 -8.22,-30.43 -12.19,1.2 -24.79,-5.82 -30.18,-16.83 -5.39,-11.01 -3.47,-26.03 4.95,-34.93 -17.07,-11.51 -26.7,-33.14 -23.84,-53.53 2.86,-20.39 18.08,-38.53 37.66,-44.89 11.5,-44.43 44.28,-82.61 86.15,-101.41 41.86,-18.8 100.77,-19.59 140.39,3.57"
         style="fill:#13110f;fill-opacity:1;fill-rule:nonzero;stroke:none"
         id="path114" />
      <path
         d="m 1343.58,3017.82 c -14.08,1.73 -28.87,-0.81 -40.87,-8.37 -11.99,-7.57 -20.87,-20.39 -22.4,-34.49 -2,-18.56 9.49,-37.42 26.36,-45.44 16.86,-8.02 37.88,-5.5 53.26,5.09 l -16.35,83.21"
         style="fill:#f68571;fill-opacity:1;fill-rule:nonzero;stroke:none"
         id="path116" />
      <path
         d="m 1305.52,2984.97 c 9.99,-1.85 19.98,-3.7 29.97,-5.55"
         style="fill:none;stroke:#13110f;stroke-width:10;stroke-linecap:round;stroke-linejoin:round;stroke-miterlimit:10;stroke-dasharray:none;stroke-opacity:1"
         id="path118" />
      <path
         d="m 1554.27,2998.37 c -2.43,30.57 -12.38,63.97 -33.51,86.19 -15.08,15.87 -36.7,22.29 -58.59,22.37 -3.65,-9.34 -11.42,-16.98 -20.81,-20.48 -9.4,-3.51 -18.33,-1.57 -27.2,3.11 -3.9,-28.71 -26.35,-54.02 -54.39,-61.31 7.2,-22.01 12.96,-43.99 20.15,-66 46.67,38.54 117.68,57.38 174.35,36.12"
         style="fill:#f68571;fill-opacity:1;fill-rule:nonzero;stroke:none"
         id="path120" />
      <path
         d="m 1437.77,3023.22 c 0,5.52 -4.48,10 -10,10 -5.52,0 -10,-4.48 -10,-10 0,-5.52 4.48,-10 10,-10 5.52,0 10,4.48 10,10"
         style="fill:#13110f;fill-opacity:1;fill-rule:nonzero;stroke:none"
         id="path122" />
      <path
         d="m 1528.44,3040.47 c 0,5.52 -4.48,10 -10,10 -5.52,0 -10,-4.48 -10,-10 0,-5.53 4.48,-10 10,-10 5.52,0 10,4.47 10,10"
         style="fill:#13110f;fill-opacity:1;fill-rule:nonzero;stroke:none"
         id="path124" />
      <path
         d="m 1483.51,2985.22 -26.08,1.23 c -1.76,-7.55 4.56,-15.9 12.3,-16.27 7.74,-0.36 14.82,7.36 13.78,15.04"
         style="fill:#ffffff;fill-opacity:1;fill-rule:nonzero;stroke:none"
         id="path126" />
      <path
         d="m 1409.07,3055.11 c 6.34,7.28 17.52,9.84 26.39,6.04"
         style="fill:none;stroke:#13110f;stroke-width:10;stroke-linecap:round;stroke-linejoin:round;stroke-miterlimit:10;stroke-dasharray:none;stroke-opacity:1"
         id="path128" />
      <path
         d="m 1491.84,3089.09 c 4.03,1.02 8.06,2.04 12.1,3.07"
         style="fill:none;stroke:#13110f;stroke-width:10;stroke-linecap:round;stroke-linejoin:round;stroke-miterlimit:10;stroke-dasharray:none;stroke-opacity:1"
         id="path130" />
      <path
         d="m 1478.5,3044.98 c 5.4,-10.26 10.8,-20.53 16.19,-30.79 -5.3,-1.87 -11.68,-5.24 -16.98,-7.11"
         style="fill:none;stroke:#13110f;stroke-width:10;stroke-linecap:round;stroke-linejoin:round;stroke-miterlimit:10;stroke-dasharray:none;stroke-opacity:1"
         id="path132" />
      <path
         d="m 1462.09,3113.52 c 4.23,-8.54 3.65,-19.26 -1.47,-27.29"
         style="fill:none;stroke:#13110f;stroke-width:10;stroke-linecap:round;stroke-linejoin:round;stroke-miterlimit:10;stroke-dasharray:none;stroke-opacity:1"
         id="path134" />
      <path
         d="m 3484.59,2718.54 c -21.4,0 -42.47,7.38 -59.29,21.03 -53.46,43.38 -146.04,86.24 -283.46,44.01 -11.2,-3.45 -23.07,2.86 -26.51,14.06 -3.44,11.2 2.86,23.07 14.06,26.51 155.27,47.67 261.17,-1.75 322.65,-51.63 11.2,-9.09 25.17,-13.02 39.39,-11.08 14.06,1.94 26.31,9.4 34.53,21.01 l 83.13,117.64 c 6.77,9.56 20,11.86 29.58,5.08 9.57,-6.76 11.84,-20 5.07,-29.57 l -83.14,-117.64 c -15.05,-21.31 -37.56,-35 -63.38,-38.55 -4.21,-0.58 -8.42,-0.87 -12.63,-0.87"
         style="fill:#998ccd;fill-opacity:1;fill-rule:nonzero;stroke:none"
         id="path136" />
      <path
         d="m 3404.09,2803.06 c -5.62,-13.11 -11.23,-26.21 -16.85,-39.32"
         style="fill:none;stroke:#13110f;stroke-width:10;stroke-linecap:round;stroke-linejoin:round;stroke-miterlimit:10;stroke-dasharray:none;stroke-opacity:1"
         id="path138" />
      <path
         d="m 3431.96,2782.54 c -5.01,-13.72 -10.02,-27.44 -15.03,-41.17"
         style="fill:none;stroke:#13110f;stroke-width:10;stroke-linecap:round;stroke-linejoin:round;stroke-miterlimit:10;stroke-dasharray:none;stroke-opacity:1"
         id="path140" />
      <path
         d="m 3465.33,2767.54 c -1.26,-13.11 -2.52,-26.21 -3.78,-39.31"
         style="fill:none;stroke:#13110f;stroke-width:10;stroke-linecap:round;stroke-linejoin:round;stroke-miterlimit:10;stroke-dasharray:none;stroke-opacity:1"
         id="path142" />
      <path
         d="m 3495.09,2758 c 2.06,-11.83 4.12,-23.65 6.18,-35.47"
         style="fill:none;stroke:#13110f;stroke-width:10;stroke-linecap:round;stroke-linejoin:round;stroke-miterlimit:10;stroke-dasharray:none;stroke-opacity:1"
         id="path144" />
      <path
         d="m 3522.1,2775.02 c 7.5,-11.85 15.01,-23.7 22.51,-35.55"
         style="fill:none;stroke:#13110f;stroke-width:10;stroke-linecap:round;stroke-linejoin:round;stroke-miterlimit:10;stroke-dasharray:none;stroke-opacity:1"
         id="path146" />
      <path
         d="m 3542.04,2798.6 c 10.16,-8.52 20.33,-17.03 30.5,-25.55"
         style="fill:none;stroke:#13110f;stroke-width:10;stroke-linecap:round;stroke-linejoin:round;stroke-miterlimit:10;stroke-dasharray:none;stroke-opacity:1"
         id="path148" />
      <path
         d="m 3017.49,2846.44 c -36.23,-17.03 -55.56,-55.4 -50.1,-93.06 l 76.86,36.14 22.03,-46.86 -76.86,-36.13 c 25.52,-28.23 67.4,-37.82 103.62,-20.79 44.38,20.86 63.44,73.75 42.57,118.13 -20.86,44.37 -73.75,63.43 -118.12,42.57"
         style="fill:#6851ad;fill-opacity:1;fill-rule:nonzero;stroke:none"
         id="path150" />
      <path
         d="m 3055.89,2694.24 c 19.91,0.72 39.36,10.09 52.34,25.2 12.99,15.12 19.32,35.75 17.03,55.55"
         style="fill:none;stroke:#13110f;stroke-width:10;stroke-linecap:round;stroke-linejoin:round;stroke-miterlimit:10;stroke-dasharray:none;stroke-opacity:1"
         id="path152" />
      <path
         d="m 3970.21,2532.89 v 0 c -117.55,-26.39 -235.47,31.54 -277.42,136.28 l -105.91,264.48 558.57,125.4 17.31,-284.36 c 6.85,-112.62 -75,-215.4 -192.55,-241.8"
         style="fill:#6851ad;fill-opacity:1;fill-rule:nonzero;stroke:none"
         id="path154" />
      <path
         d="m 4014.29,2578.72 c 70.05,24.02 122.6,92.4 127.77,166.28"
         style="fill:none;stroke:#ffffff;stroke-width:10;stroke-linecap:round;stroke-linejoin:round;stroke-miterlimit:10;stroke-dasharray:none;stroke-opacity:1"
         id="path156" />
      <path
         d="m 3968.94,2893.19 c -2.95,13.15 -16,21.41 -29.15,18.46 -13.14,-2.95 -21.41,-16 -18.46,-29.15 2.95,-13.15 16,-21.41 29.15,-18.46 13.15,2.95 21.41,16 18.46,29.15"
         style="fill:#ffffff;fill-opacity:1;fill-rule:nonzero;stroke:none"
         id="path158" />
      <path
         d="m 3903.85,2891.04 c -1.25,17.95 15.84,34.89 33.78,33.51"
         style="fill:none;stroke:#13110f;stroke-width:10;stroke-linecap:round;stroke-linejoin:round;stroke-miterlimit:10;stroke-dasharray:none;stroke-opacity:1"
         id="path160" />
      <path
         d="m 4054.79,2912.46 c -2.95,13.15 -16,21.42 -29.15,18.46 -13.14,-2.95 -21.41,-16 -18.45,-29.14 2.95,-13.15 16,-21.42 29.14,-18.46 13.15,2.95 21.41,16 18.46,29.14"
         style="fill:#f58614;fill-opacity:1;fill-rule:nonzero;stroke:none"
         id="path162" />
      <path
         d="m 3989.79,2913.5 c -0.84,19.84 20.08,37.47 39.49,33.27"
         style="fill:none;stroke:#13110f;stroke-width:10;stroke-linecap:round;stroke-linejoin:round;stroke-miterlimit:10;stroke-dasharray:none;stroke-opacity:1"
         id="path164" />
      <path
         d="m 4303.25,2568.73 c -11.51,0 -20.97,9.22 -21.21,20.79 -5.35,260.96 -151.7,344.37 -157.93,347.79 -10.23,5.63 -14.03,18.5 -8.45,28.76 5.59,10.26 18.39,14.09 28.66,8.56 7.11,-3.84 174.27,-97.16 180.16,-384.24 0.23,-11.72 -9.07,-21.41 -20.79,-21.65 -0.14,-0.01 -0.3,-0.01 -0.44,-0.01"
         style="fill:#998ccd;fill-opacity:1;fill-rule:nonzero;stroke:none"
         id="path166" />
      <path
         d="m 4225.86,2831.31 c 13.71,6.91 27.41,13.82 41.12,20.74"
         style="fill:none;stroke:#13110f;stroke-width:10;stroke-linecap:round;stroke-linejoin:round;stroke-miterlimit:10;stroke-dasharray:none;stroke-opacity:1"
         id="path168" />
      <path
         d="m 4233.27,2816.64 c 12.44,4.48 24.88,8.96 37.32,13.43"
         style="fill:none;stroke:#13110f;stroke-width:10;stroke-linecap:round;stroke-linejoin:round;stroke-miterlimit:10;stroke-dasharray:none;stroke-opacity:1"
         id="path170" />
      <path
         d="m 4244.34,2800.08 c 12.53,5.49 25.06,10.99 37.6,16.48"
         style="fill:none;stroke:#13110f;stroke-width:10;stroke-linecap:round;stroke-linejoin:round;stroke-miterlimit:10;stroke-dasharray:none;stroke-opacity:1"
         id="path172" />
      <path
         d="m 4246.43,2777.2 c 14.98,4.98 29.96,9.96 44.94,14.93"
         style="fill:none;stroke:#13110f;stroke-width:10;stroke-linecap:round;stroke-linejoin:round;stroke-miterlimit:10;stroke-dasharray:none;stroke-opacity:1"
         id="path174" />
      <path
         d="m 4255.87,2758.22 c 14.35,4.39 28.7,8.78 43.04,13.17"
         style="fill:none;stroke:#13110f;stroke-width:10;stroke-linecap:round;stroke-linejoin:round;stroke-miterlimit:10;stroke-dasharray:none;stroke-opacity:1"
         id="path176" />
      <path
         d="m 4186.15,2544.63 c -16.18,-36.62 -5.61,-78.26 23.21,-103.11 l 34.33,77.68 47.35,-20.93 -34.32,-77.68 c 37.77,-4.57 75.68,15.65 91.86,52.26 19.82,44.85 -0.47,97.28 -45.32,117.1 -44.86,19.82 -97.28,-0.47 -117.11,-45.32"
         style="fill:#6851ad;fill-opacity:1;fill-rule:nonzero;stroke:none"
         id="path178" />
      <path
         d="m 4282.14,2441.57 c 32.72,5.73 57.59,40.1 52.8,72.97"
         style="fill:none;stroke:#13110f;stroke-width:10;stroke-linecap:round;stroke-linejoin:round;stroke-miterlimit:10;stroke-dasharray:none;stroke-opacity:1"
         id="path180" />
      <path
         d="m 3816.54,2359.01 c 12.66,18.49 36.16,28.92 58.37,25.89 27.02,-3.69 48.52,-24.8 74.74,-32.29 33.53,-9.58 72.65,6.97 89.13,37.7"
         style="fill:none;stroke:#ffffff;stroke-width:10;stroke-linecap:round;stroke-linejoin:round;stroke-miterlimit:10;stroke-dasharray:none;stroke-opacity:1"
         id="path182" />
      <path
         d="m 3823.32,2265.03 c 0.1,27.46 33.31,43.79 60.56,40.4 27.24,-3.39 51.28,-19.1 77.57,-27.03 26.28,-7.93 60.28,-4.92 73.7,19.03"
         style="fill:none;stroke:#ffffff;stroke-width:10;stroke-linecap:round;stroke-linejoin:round;stroke-miterlimit:10;stroke-dasharray:none;stroke-opacity:1"
         id="path184" />
      <path
         d="m 3261.96,3574.02 -56.32,43.54"
         style="fill:none;stroke:#ffffff;stroke-width:10;stroke-linecap:round;stroke-linejoin:round;stroke-miterlimit:10;stroke-dasharray:none;stroke-opacity:1"
         id="path186" />
      <path
         d="m 3407.84,3519.14 c 0,46.01 -37.3,83.31 -83.31,83.31 -46.01,0 -83.31,-37.3 -83.31,-83.31 0,-46.01 37.3,-83.31 83.31,-83.31 46.01,0 83.31,37.3 83.31,83.31"
         style="fill:#6851ad;fill-opacity:1;fill-rule:nonzero;stroke:none"
         id="path188" />
      <path
         d="m 3210.31,3632.79 c 0,12.66 -10.27,22.92 -22.93,22.92 -12.66,0 -22.92,-10.26 -22.92,-22.92 0,-12.66 10.26,-22.93 22.92,-22.93 12.66,0 22.93,10.27 22.93,22.93"
         style="fill:#6851ad;fill-opacity:1;fill-rule:nonzero;stroke:none"
         id="path190" />
      <path
         d="m 3651.65,3727.55 c -261.5,0 -473.5,-269.71 -473.5,-602.41 h 946.99 c 0,332.7 -211.99,602.41 -473.49,602.41"
         style="fill:#998ccd;fill-opacity:1;fill-rule:nonzero;stroke:none"
         id="path192" />
      <path
         d="m 3303.91,3470.96 c 49.42,101.71 140.64,182.32 247.66,218.85"
         style="fill:none;stroke:#ffffff;stroke-width:10;stroke-linecap:round;stroke-linejoin:round;stroke-miterlimit:10;stroke-dasharray:none;stroke-opacity:1"
         id="path194" />
      <path
         d="m 3442.65,3311.86 h 343.88 c 0,0 -150.78,-171.17 -343.88,0"
         style="fill:#ffffff;fill-opacity:1;fill-rule:nonzero;stroke:none"
         id="path196" />
      <path
         d="m 3644.74,3479.51 c 0,29.07 -23.56,52.63 -52.63,52.63 -29.06,0 -52.63,-23.56 -52.63,-52.63 0,-29.06 23.57,-52.62 52.63,-52.62 29.07,0 52.63,23.56 52.63,52.62"
         style="fill:#6851ad;fill-opacity:1;fill-rule:nonzero;stroke:none"
         id="path198" />
      <path
         d="m 3516.21,3492.05 c 9.35,34.99 42.64,62.18 78.79,64.34"
         style="fill:none;stroke:#13110f;stroke-width:10;stroke-linecap:round;stroke-linejoin:round;stroke-miterlimit:10;stroke-dasharray:none;stroke-opacity:1"
         id="path200" />
      <path
         d="m 4042.46,3465.36 c 12.28,14.51 19.68,33.28 19.68,53.78 0,46.01 -37.3,83.31 -83.31,83.31 -11.31,0 -22.09,-2.26 -31.92,-6.34 0,0 -8.37,-97.94 95.55,-130.75"
         style="fill:#6851ad;fill-opacity:1;fill-rule:nonzero;stroke:none"
         id="path202" />
      <path
         d="m 4042.57,3572.73 54.17,44.83"
         style="fill:none;stroke:#ffffff;stroke-width:10;stroke-linecap:round;stroke-linejoin:round;stroke-miterlimit:10;stroke-dasharray:none;stroke-opacity:1"
         id="path204" />
      <path
         d="m 4136.46,3631.9 c 0,12.67 -10.26,22.93 -22.92,22.93 -12.66,0 -22.93,-10.26 -22.93,-22.93 0,-12.66 10.27,-22.92 22.93,-22.92 12.66,0 22.92,10.26 22.92,22.92"
         style="fill:#6851ad;fill-opacity:1;fill-rule:nonzero;stroke:none"
         id="path206" />
    </g>
  </g>
</svg>
