<svg xmlns="http://www.w3.org/2000/svg" version="1.1" xmlns:xlink="http://www.w3.org/1999/xlink" xmlns:svgjs="http://svgjs.dev/svgjs" width="2000" height="1999" viewBox="0 0 2000 1999"><g transform="matrix(1,0,0,1,-0.431486880466764,-0.4312711370263287)"><svg viewBox="0 0 343 343" data-background-color="#ffffff" preserveAspectRatio="xMidYMid meet" height="1999" width="2000" xmlns="http://www.w3.org/2000/svg" xmlns:xlink="http://www.w3.org/1999/xlink"><g id="tight-bounds" transform="matrix(1,0,0,1,0.0740000000000407,0.07400000000001228)"><svg viewBox="0 0 342.85155851775386 342.85155851775386" height="342.85155851775386" width="342.85155851775386"><g><svg></svg></g><g><svg viewBox="0 0 342.85155851775386 342.85155851775386" height="342.85155851775386" width="342.85155851775386"><g><path d="M0 171.426c0-94.676 76.75-171.426 171.426-171.426 94.676 0 171.426 76.75 171.426 171.426 0 94.676-76.75 171.426-171.426 171.426-94.676 0-171.426-76.75-171.426-171.426zM171.426 338.63c92.345 0 167.205-74.86 167.204-167.204 0-92.345-74.86-167.205-167.204-167.205-92.345 0-167.205 74.86-167.205 167.205 0 92.345 74.86 167.205 167.205 167.204z" data-fill-palette-color="tertiary" fill="#000000" stroke="transparent"></path><ellipse rx="164.56874808852186" ry="164.56874808852186" cx="171.42577925887693" cy="171.42577925887693" fill="#000000" stroke="transparent" stroke-width="0" fill-opacity="1" data-fill-palette-color="tertiary"></ellipse></g><g transform="matrix(1,0,0,1,64.84655864529837,110.1528312030876)"><svg viewBox="0 0 213.1584412271571 122.54589611157867" height="122.54589611157867" width="213.1584412271571"><g><svg viewBox="0 0 213.1584412271571 122.54589611157867" height="122.54589611157867" width="213.1584412271571"><g transform="matrix(1,0,0,1,0,75.73828009448113)"><svg viewBox="0 0 213.1584412271571 46.807616017097544" height="46.807616017097544" width="213.1584412271571"><g id="textblocktransform"><svg viewBox="0 0 213.1584412271571 46.807616017097544" height="46.807616017097544" width="213.1584412271571" id="textblock"><g><svg viewBox="0 0 213.1584412271571 46.807616017097544" height="46.807616017097544" width="213.1584412271571"><g transform="matrix(1,0,0,1,0,0)"><svg width="213.1584412271571" viewBox="2.049999952316284 -36.25 210.8855438232422 46.31282043457031" height="46.807616017097544" data-palette-color="#ffffff"><path d="M14.55 0.5L14.55 0.5Q11 0.5 8.15-0.88 5.3-2.25 3.68-4.67 2.05-7.1 2.05-10.2L2.05-10.2Q2.05-11.4 2.83-12.13 3.6-12.85 4.65-12.85L4.65-12.85Q5.45-12.85 6.1-12.35 6.75-11.85 6.9-10.85L6.9-10.85Q7.6-4.4 15.2-4.4L15.2-4.4Q18.85-4.4 20.95-6 23.05-7.6 23.05-10.1L23.05-10.1Q23.05-11.6 21.6-12.63 20.15-13.65 17.65-14.45L17.65-14.45 16.1-15Q11.15-16.65 9-17.7L9-17.7Q5.9-19.25 4.38-21.35 2.85-23.45 2.85-26.3L2.85-26.3Q2.85-28.8 4.45-31.1 6.05-33.4 8.93-34.83 11.8-36.25 15.35-36.25L15.35-36.25Q19.05-36.25 21.95-34.9 24.85-33.55 26.45-31.3 28.05-29.05 28.05-26.5L28.05-26.5Q28.05-25.2 27.33-24.48 26.6-23.75 25.55-23.75L25.55-23.75Q24.55-23.75 23.85-24.48 23.15-25.2 23.15-26.4L23.15-26.4Q23.15-27.65 22.08-28.83 21-30 19.18-30.73 17.35-31.45 15.2-31.45L15.2-31.45Q11.5-31.45 9.7-30.18 7.9-28.9 7.8-26.65L7.8-26.65Q7.75-25.45 8.55-24.55 9.35-23.65 11.05-22.7L11.05-22.7Q12.65-21.85 14.45-21.13 16.25-20.4 19.25-19.4L19.25-19.4Q23.25-18.05 25.63-15.88 28-13.7 28-10.25L28-10.25Q28-7.05 26.1-4.6 24.2-2.15 21.13-0.83 18.05 0.5 14.55 0.5L14.55 0.5ZM50.6-0.8L50.6-0.8Q44.85-7.15 41.7-12.7L41.7-12.7 39-10.45Q38.9-10.35 38.8-10.3L38.8-10.3Q38.7-6.4 38.5-2.35L38.5-2.35Q38.45-1.3 37.67-0.6 36.9 0.1 35.87 0.05 34.85 0 34.15-0.78 33.45-1.55 33.5-2.55L33.5-2.55Q34.05-14.05 34.05-33.3L34.05-33.3Q34.05-34.35 34.77-35.08 35.5-35.8 36.55-35.8 37.6-35.8 38.32-35.08 39.05-34.35 39.05-33.3L39.05-33.3Q39.05-23.5 38.95-16.9L38.95-16.9Q46.25-23 49.05-25.7L49.05-25.7Q49.7-26.5 50.75-26.55 51.8-26.6 52.57-25.93 53.35-25.25 53.4-24.2 53.45-23.15 52.75-22.4L52.75-22.4Q50.25-19.95 45.6-15.95L45.6-15.95Q48.6-10.45 54.3-4.1L54.3-4.1Q55-3.35 54.95-2.33 54.9-1.3 54.12-0.6 53.35 0.1 52.32 0.05 51.3 0 50.6-0.8L50.6-0.8ZM58.05-2.4L58.05-2.4Q57.95-6.15 58.07-13.9 58.2-21.65 58.2-24.05L58.2-24.05Q58.2-25.1 58.92-25.83 59.65-26.55 60.7-26.55 61.75-26.55 62.47-25.83 63.2-25.1 63.2-24.05L63.2-24.05Q63.2-21.65 63.07-13.95 62.95-6.25 63.05-2.5L63.05-2.5Q63.05-1.45 62.35-0.7 61.65 0.05 60.6 0.05 59.55 0.05 58.8-0.65 58.05-1.35 58.05-2.4L58.05-2.4ZM62.7-35.2L62.7-35.2Q63.55-34.35 63.55-33.1 63.55-31.85 62.7-31 61.85-30.15 60.6-30.15 59.35-30.15 58.5-31 57.65-31.85 57.65-33.1 57.65-34.35 58.5-35.2 59.35-36.05 60.62-36.08 61.9-36.1 62.7-35.2L62.7-35.2ZM74.44-2.4L74.44-2.4Q74.39-1.35 73.64-0.65 72.89 0.05 71.84 0 70.79-0.05 70.09-0.8 69.39-1.55 69.44-2.6L69.44-2.6Q69.64-9.25 69.64-12.7 69.64-16.15 69.54-23 69.44-29.85 69.44-33.3L69.44-33.3Q69.44-34.35 70.17-35.08 70.89-35.8 71.94-35.8 72.99-35.8 73.72-35.08 74.44-34.35 74.44-33.3L74.44-33.3Q74.44-29.85 74.54-23.5 74.64-17.15 74.62-11.98 74.59-6.8 74.44-2.4L74.44-2.4ZM85.59-2.4L85.59-2.4Q85.54-1.35 84.79-0.65 84.04 0.05 82.99 0 81.94-0.05 81.24-0.8 80.54-1.55 80.59-2.6L80.59-2.6Q80.79-9.25 80.79-12.7 80.79-16.15 80.69-23 80.59-29.85 80.59-33.3L80.59-33.3Q80.59-34.35 81.32-35.08 82.04-35.8 83.09-35.8 84.14-35.8 84.87-35.08 85.59-34.35 85.59-33.3L85.59-33.3Q85.59-29.85 85.69-23.5 85.79-17.15 85.77-11.98 85.74-6.8 85.59-2.4L85.59-2.4ZM93.79-11.5L93.79-11.5Q92.74-11.45 92.04-12.03 91.34-12.6 91.26-13.63 91.19-14.65 91.79-15.35 92.39-16.05 93.39-16.15L93.39-16.15Q95.09-16.25 98.09-16.35 101.09-16.45 102.01-16.5 102.94-16.55 103.71-15.93 104.49-15.3 104.54-14.28 104.59-13.25 103.89-12.58 103.19-11.9 102.19-11.85L102.19-11.85Q101.19-11.8 98.34-11.7 95.49-11.6 93.79-11.5L93.79-11.5ZM121.59 0.5L121.59 0.5Q118.04 0.5 115.19-0.88 112.34-2.25 110.71-4.67 109.09-7.1 109.09-10.2L109.09-10.2Q109.09-11.4 109.86-12.13 110.64-12.85 111.69-12.85L111.69-12.85Q112.49-12.85 113.14-12.35 113.79-11.85 113.94-10.85L113.94-10.85Q114.64-4.4 122.24-4.4L122.24-4.4Q125.89-4.4 127.99-6 130.09-7.6 130.09-10.1L130.09-10.1Q130.09-11.6 128.64-12.63 127.19-13.65 124.69-14.45L124.69-14.45 123.14-15Q118.19-16.65 116.04-17.7L116.04-17.7Q112.94-19.25 111.41-21.35 109.89-23.45 109.89-26.3L109.89-26.3Q109.89-28.8 111.49-31.1 113.09-33.4 115.96-34.83 118.84-36.25 122.39-36.25L122.39-36.25Q126.09-36.25 128.99-34.9 131.89-33.55 133.49-31.3 135.09-29.05 135.09-26.5L135.09-26.5Q135.09-25.2 134.36-24.48 133.64-23.75 132.59-23.75L132.59-23.75Q131.59-23.75 130.89-24.48 130.19-25.2 130.19-26.4L130.19-26.4Q130.19-27.65 129.11-28.83 128.04-30 126.21-30.73 124.39-31.45 122.24-31.45L122.24-31.45Q118.54-31.45 116.74-30.18 114.94-28.9 114.84-26.65L114.84-26.65Q114.79-25.45 115.59-24.55 116.39-23.65 118.09-22.7L118.09-22.7Q119.69-21.85 121.49-21.13 123.29-20.4 126.29-19.4L126.29-19.4Q130.29-18.05 132.66-15.88 135.04-13.7 135.04-10.25L135.04-10.25Q135.04-7.05 133.14-4.6 131.24-2.15 128.16-0.83 125.09 0.5 121.59 0.5L121.59 0.5ZM139.93 10.05L139.93 10.05Q138.88 10.15 138.08 9.47 137.28 8.8 137.18 7.78 137.08 6.75 137.76 5.95 138.43 5.15 139.43 5.05L139.43 5.05Q139.93 5 140.63 4.95 141.33 4.9 141.56 4.88 141.78 4.85 142.13 4.78 142.48 4.7 142.68 4.55L142.68 4.55 143.18 4.25Q144.38 3.65 145.33 0.9L145.33 0.9Q145.63 0.05 145.93-0.3L145.93-0.3Q145.58-0.7 145.38-1.25L145.38-1.25Q144.48-5.1 141.68-12.65L141.68-12.65Q139.18-19.3 137.98-23.3L137.98-23.3Q137.68-24.3 138.18-25.2 138.68-26.1 139.68-26.4 140.68-26.7 141.58-26.2 142.48-25.7 142.78-24.7L142.78-24.7Q143.73-21.5 146.38-14.4L146.38-14.4 148.28-9.2Q151.78-19.9 154.68-25.25L154.68-25.25Q155.18-26.15 156.18-26.45 157.18-26.75 158.08-26.25 158.98-25.75 159.28-24.75 159.58-23.75 159.08-22.85L159.08-22.85Q157.78-20.45 156.38-17 154.98-13.55 154.18-11.2 153.38-8.85 152.08-4.65L152.08-4.65Q151.78-3.65 151.68-3.25L151.68-3.25Q151.43-2.6 150.98-0.65L150.98-0.65Q150.43 1.2 150.08 2.35L150.08 2.35Q148.68 6.25 146.28 8.15L146.28 8.15Q145.58 8.7 144.88 9.08 144.18 9.45 143.41 9.63 142.63 9.8 142.18 9.88 141.73 9.95 140.91 9.98 140.08 10 139.93 10.05L139.93 10.05ZM165.78 0L165.78 0Q164.78 0 164.03-0.68 163.28-1.35 163.28-2.5L163.28-2.5Q163.28-6.45 163.23-9.3L163.23-9.3Q163.13-17.8 163.13-24.05L163.13-24.05Q163.13-25.2 163.83-25.85 164.53-26.5 165.53-26.5L165.53-26.5Q166.58-26.5 167.36-25.83 168.13-25.15 168.13-23.95L168.13-23.95 168.13-22.4Q171.23-26.45 176.28-26.45L176.28-26.45Q180.63-26.45 182.96-23.4 185.28-20.35 185.28-15.2L185.28-15.2Q185.28-9.5 185.13-7.7L185.13-7.7 184.88-4.35 184.73-2.2Q184.63-1.2 183.93-0.6 183.23 0 182.28 0L182.28 0Q181.28 0 180.53-0.68 179.78-1.35 179.78-2.5L179.78-2.5Q179.78-3.3 180.13-8.05L180.13-8.05Q180.38-11.3 180.38-13.15L180.38-13.15Q180.38-17.4 179.18-19.43 177.98-21.45 175.48-21.45L175.48-21.45Q173.68-21.45 171.76-20.35 169.83-19.25 168.13-17.55L168.13-17.55 168.23-10.45 168.28-2.5Q168.28-1.35 167.53-0.68 166.78 0 165.78 0L165.78 0ZM203.08 0.1L203.08 0.1Q200.23 0.15 197.5-0.9 194.78-1.95 193.03-3.95L193.03-3.95Q191.23-6.05 190.65-8.97 190.08-11.9 190.6-14.55 191.13-17.2 192.38-19.65L192.38-19.65Q193.38-21.5 194.78-22.98 196.18-24.45 198.05-25.48 199.93-26.5 202.05-26.58 204.18-26.65 206.63-25.65L206.63-25.65Q207.93-25.05 209.28-23.75L209.28-23.75 210.88-22.15Q211.68-21.5 211.78-20.45 211.88-19.4 211.2-18.63 210.53-17.85 209.48-17.75 208.43-17.65 207.68-18.35L207.68-18.35Q207.23-18.7 206.63-19.3L206.63-19.3 205.78-20.15Q205.08-20.85 204.63-21.05L204.63-21.05Q202.38-22.05 200.33-21.03 198.28-20 196.83-17.3L196.83-17.3Q195.33-14.5 195.35-11.7 195.38-8.9 196.83-7.25L196.83-7.25Q197.73-6.2 199.43-5.55 201.13-4.9 203.03-4.9L203.03-4.9Q206.88-5 207.98-7.65L207.98-7.65 207.93-7.9 207.93-9.35Q207.98-10.4 208.75-11.08 209.53-11.75 210.58-11.7 211.63-11.65 212.3-10.88 212.98-10.1 212.93-9.05L212.93-9.05 212.93-7.95Q212.98-6.7 212.58-5.75L212.58-5.75Q211.43-2.85 208.8-1.4 206.18 0.05 203.08 0.1L203.08 0.1Z" opacity="1" transform="matrix(1,0,0,1,0,0)" fill="#ffffff" class="wordmark-text-0" data-fill-palette-color="quaternary" id="text-0"></path></svg></g></svg></g></svg></g></svg></g><g transform="matrix(1,0,0,1,63.45380372315935,0)"><svg viewBox="0 0 86.2508337808384 64.68812533562881" height="64.68812533562881" width="86.2508337808384"><g><svg xmlns="http://www.w3.org/2000/svg" xmlns:xlink="http://www.w3.org/1999/xlink" version="1.1" x="0" y="0" viewBox="0 0 100 75" style="enable-background:new 0 0 100 75;" xml:space="preserve" height="64.68812533562881" width="86.2508337808384" class="icon-icon-0" data-fill-palette-color="quaternary" id="icon-0"><path d="M87.5 43.75c0 3.442-2.808 6.25-6.25 6.25H24.976V37.5L0 56.25 24.976 75V62.5H81.25c10.34 0 18.75-8.423 18.75-18.75H87.5z" fill="#ffffff" data-fill-palette-color="quaternary"></path><path d="M18.75 25H75v12.5l25-18.75L75 0v12.5H18.75C8.41 12.5 0 20.898 0 31.25h12.5C12.5 27.808 15.308 25 18.75 25z" fill="#ffffff" data-fill-palette-color="quaternary"></path></svg></g></svg></g><g></g></svg></g></svg></g></svg></g><defs></defs></svg><rect width="342.85155851775386" height="342.85155851775386" fill="none" stroke="none" visibility="hidden"></rect></g></svg></g></svg>