<svg xmlns="http://www.w3.org/2000/svg" version="1.1" xmlns:xlink="http://www.w3.org/1999/xlink" xmlns:svgjs="http://svgjs.dev/svgjs" width="128" height="128" viewBox="0 0 128 128"><g transform="matrix(0.8046875,0,0,0.8046875,12.411840748212605,12.814873242367192)"><svg viewBox="0 0 98 98" data-background-color="#ffffff" preserveAspectRatio="xMidYMid meet" height="127" width="128" xmlns="http://www.w3.org/2000/svg" xmlns:xlink="http://www.w3.org/1999/xlink"><g id="tight-bounds" transform="matrix(1,0,0,1,0.0838796764579115,0.0838796764579115)"><svg viewBox="0 0 97.83224064708416 97.83224064708416" height="97.83224064708416" width="97.83224064708416"><g><svg></svg></g><g><svg viewBox="0 0 97.83224064708416 97.83224064708416" height="97.83224064708416" width="97.83224064708416"><g><path d="M0 48.916c0-27.016 21.9-48.916 48.916-48.916 27.016 0 48.916 21.9 48.916 48.916 0 27.016-21.9 48.916-48.916 48.916-27.016 0-48.916-21.9-48.916-48.916zM48.916 94.391c25.115 0 45.475-20.36 45.475-45.475 0-25.115-20.36-45.475-45.475-45.475-25.115 0-45.475 20.36-45.475 45.475 0 25.115 20.36 45.475 45.475 45.475z" data-fill-palette-color="tertiary" fill="#ffffff" stroke="transparent"></path><ellipse rx="46.9594755106004" ry="46.9594755106004" cx="48.91612032354208" cy="48.91612032354208" fill="#ffffff" stroke="transparent" stroke-width="0" fill-opacity="1" data-fill-palette-color="tertiary"></ellipse></g><g transform="matrix(1,0,0,1,23.475393915029343,29.83557551715753)"><svg viewBox="0 0 50.881452817025476 38.1610896127691" height="38.1610896127691" width="50.881452817025476"><g><svg viewBox="0 0 50.881452817025476 38.1610896127691" height="38.1610896127691" width="50.881452817025476"><g><svg viewBox="0 0 50.881452817025476 38.1610896127691" height="38.1610896127691" width="50.881452817025476"><g id="textblocktransform"><svg viewBox="0 0 50.881452817025476 38.1610896127691" height="38.1610896127691" width="50.881452817025476" id="textblock"><g><svg viewBox="0 0 50.881452817025476 38.1610896127691" height="38.1610896127691" width="50.881452817025476"><g><svg viewBox="0 0 50.881452817025476 38.1610896127691" height="38.1610896127691" width="50.881452817025476"><g><svg xmlns="http://www.w3.org/2000/svg" xmlns:xlink="http://www.w3.org/1999/xlink" version="1.1" x="0" y="0" viewBox="0 0 100 75" style="enable-background:new 0 0 100 75;" xml:space="preserve" height="38.1610896127691" width="50.881452817025476" class="icon-icon-0" data-fill-palette-color="quaternary" id="icon-0"><path d="M87.5 43.75c0 3.442-2.808 6.25-6.25 6.25H24.976V37.5L0 56.25 24.976 75V62.5H81.25c10.34 0 18.75-8.423 18.75-18.75H87.5z" fill="#000000" data-fill-palette-color="quaternary"></path><path d="M18.75 25H75v12.5l25-18.75L75 0v12.5H18.75C8.41 12.5 0 20.898 0 31.25h12.5C12.5 27.808 15.308 25 18.75 25z" fill="#000000" data-fill-palette-color="quaternary"></path></svg></g></svg></g></svg></g></svg></g></svg></g><g></g></svg></g></svg></g></svg></g><defs></defs></svg><rect width="97.83224064708416" height="97.83224064708416" fill="none" stroke="none" visibility="hidden"></rect></g></svg></g></svg>